<svg width="334" height="40" viewBox="0 0 334 40" fill="none" xmlns="http://www.w3.org/2000/svg">
<path d="M14.2991 9.43942C16.6379 9.43942 18.4583 10.223 19.7603 11.7902C21.0864 13.3574 21.7494 15.4792 21.7494 18.1555V29.9819H13.7566V19.1682C13.7566 18.2037 13.4914 17.4442 12.961 16.8897C12.4547 16.311 11.7675 16.0217 10.8995 16.0217C10.0074 16.0217 9.30818 16.311 8.80186 16.8897C8.29553 17.4442 8.04236 18.2037 8.04236 19.1682V29.9819H0.0134277V9.58409H8.04236V12.6944C8.66924 11.73 9.50107 10.9464 10.5378 10.3436C11.5987 9.74081 12.8525 9.43942 14.2991 9.43942Z" fill="#00071A"/>
<path d="M34.9236 30.2351C32.8741 30.2351 31.0297 29.8131 29.3901 28.9693C27.7506 28.1254 26.4606 26.9198 25.5203 25.3526C24.6041 23.7613 24.146 21.9048 24.146 19.783C24.146 17.6612 24.6041 15.8168 25.5203 14.2495C26.4606 12.6582 27.7506 11.4406 29.3901 10.5967C31.0297 9.75286 32.8741 9.33092 34.9236 9.33092C36.973 9.33092 38.8175 9.75286 40.457 10.5967C42.0966 11.4406 43.3745 12.6582 44.2907 14.2495C45.231 15.8168 45.7012 17.6612 45.7012 19.783C45.7012 21.9048 45.231 23.7613 44.2907 25.3526C43.3745 26.9198 42.0966 28.1254 40.457 28.9693C38.8175 29.8131 36.973 30.2351 34.9236 30.2351ZM34.9236 23.2911C35.671 23.2911 36.2979 23.0018 36.8042 22.4231C37.3106 21.8204 37.5637 20.9403 37.5637 19.783C37.5637 18.6257 37.3106 17.7577 36.8042 17.179C36.2979 16.5763 35.671 16.2749 34.9236 16.2749C34.1761 16.2749 33.5493 16.5763 33.0429 17.179C32.5366 17.7577 32.2834 18.6257 32.2834 19.783C32.2834 20.9403 32.5245 21.8204 33.0068 22.4231C33.5131 23.0018 34.152 23.2911 34.9236 23.2911Z" fill="#00071A"/>
<path d="M60.9179 23.1465V29.9819H57.8799C52.2862 29.9819 49.4893 27.1971 49.4893 21.6275V16.2749H46.9577V9.58409H49.4893V4.66546H57.5182V9.58409H60.8455V16.2749H57.5182V21.7722C57.5182 22.2544 57.6267 22.604 57.8437 22.821C58.0848 23.038 58.4706 23.1465 59.0011 23.1465H60.9179Z" fill="#00071A"/>
<path d="M78.15 12.3689C78.6563 11.4286 79.3797 10.6932 80.32 10.1628C81.2844 9.6082 82.4297 9.33092 83.7558 9.33092C85.3471 9.33092 86.7817 9.75286 88.0596 10.5967C89.3375 11.4165 90.3381 12.6221 91.0614 14.2134C91.8088 15.7806 92.1826 17.6371 92.1826 19.783C92.1826 21.9289 91.8088 23.7975 91.0614 25.3888C90.3381 26.956 89.3375 28.1615 88.0596 29.0054C86.7817 29.8252 85.3471 30.2351 83.7558 30.2351C82.4297 30.2351 81.2844 29.9699 80.32 29.4394C79.3797 28.8849 78.6563 28.1374 78.15 27.1971V29.9819H70.1211V3.21881H78.15V12.3689ZM84.0451 19.783C84.0451 18.698 83.7679 17.8541 83.2133 17.2514C82.6588 16.6486 81.9475 16.3472 81.0795 16.3472C80.2115 16.3472 79.5002 16.6486 78.9457 17.2514C78.3911 17.8541 78.1138 18.698 78.1138 19.783C78.1138 20.868 78.3911 21.7119 78.9457 22.3146C79.5002 22.9174 80.2115 23.2188 81.0795 23.2188C81.9475 23.2188 82.6588 22.9174 83.2133 22.3146C83.7679 21.7119 84.0451 20.868 84.0451 19.783Z" fill="#00071A"/>
<path d="M104.395 30.2351C102.346 30.2351 100.502 29.8131 98.862 28.9693C97.2225 28.1254 95.9326 26.9198 94.9922 25.3526C94.076 23.7613 93.6179 21.9048 93.6179 19.783C93.6179 17.6612 94.076 15.8168 94.9922 14.2495C95.9326 12.6582 97.2225 11.4406 98.862 10.5967C100.502 9.75286 102.346 9.33092 104.395 9.33092C106.445 9.33092 108.289 9.75286 109.929 10.5967C111.568 11.4406 112.846 12.6582 113.763 14.2495C114.703 15.8168 115.173 17.6612 115.173 19.783C115.173 21.9048 114.703 23.7613 113.763 25.3526C112.846 26.9198 111.568 28.1254 109.929 28.9693C108.289 29.8131 106.445 30.2351 104.395 30.2351ZM104.395 23.2911C105.143 23.2911 105.77 23.0018 106.276 22.4231C106.782 21.8204 107.036 20.9403 107.036 19.783C107.036 18.6257 106.782 17.7577 106.276 17.179C105.77 16.5763 105.143 16.2749 104.395 16.2749C103.648 16.2749 103.021 16.5763 102.515 17.179C102.009 17.7577 101.755 18.6257 101.755 19.783C101.755 20.9403 101.996 21.8204 102.479 22.4231C102.985 23.0018 103.624 23.2911 104.395 23.2911Z" fill="#00071A"/>
<path d="M125.724 13.3454C126.544 12.164 127.545 11.2236 128.726 10.5244C129.908 9.80109 131.137 9.43942 132.415 9.43942V18.0109H130.137C128.618 18.0109 127.496 18.2761 126.773 18.8065C126.074 19.337 125.724 20.2773 125.724 21.6275V29.9819H117.695V9.58409H125.724V13.3454Z" fill="#00071A"/>
<path d="M138.628 7.9566C137.23 7.9566 136.109 7.58288 135.265 6.83544C134.421 6.08801 133.999 5.14768 133.999 4.01447C133.999 2.85714 134.421 1.90476 135.265 1.15732C136.109 0.385775 137.23 0 138.628 0C140.003 0 141.112 0.385775 141.956 1.15732C142.8 1.90476 143.221 2.85714 143.221 4.01447C143.221 5.14768 142.8 6.08801 141.956 6.83544C141.112 7.58288 140.003 7.9566 138.628 7.9566ZM142.607 9.58409V29.9819H134.578V9.58409H142.607Z" fill="#00071A"/>
<path d="M160.519 9.43942C162.857 9.43942 164.678 10.223 165.98 11.7902C167.306 13.3574 167.969 15.4792 167.969 18.1555V29.9819H159.976V19.1682C159.976 18.2037 159.711 17.4442 159.18 16.8897C158.674 16.311 157.987 16.0217 157.119 16.0217C156.227 16.0217 155.528 16.311 155.021 16.8897C154.515 17.4442 154.262 18.2037 154.262 19.1682V29.9819H146.233V9.58409H154.262V12.6944C154.889 11.73 155.721 10.9464 156.757 10.3436C157.818 9.74081 159.072 9.43942 160.519 9.43942Z" fill="#00071A"/>
<path d="M178.792 9.33092C180.118 9.33092 181.264 9.6082 182.228 10.1628C183.192 10.6932 183.928 11.4286 184.434 12.3689V9.58409H192.427V29.6203C192.427 31.525 192.077 33.261 191.378 34.8282C190.679 36.3954 189.546 37.6492 187.979 38.5895C186.435 39.5298 184.446 40 182.011 40C178.732 40 176.128 39.2285 174.199 37.6854C172.294 36.1664 171.209 34.0928 170.944 31.4647H178.828C179.045 32.5256 179.913 33.0561 181.432 33.0561C182.373 33.0561 183.108 32.8149 183.639 32.3327C184.169 31.8505 184.434 30.9464 184.434 29.6203V27.1971C183.928 28.1374 183.192 28.8849 182.228 29.4394C181.264 29.9699 180.118 30.2351 178.792 30.2351C177.201 30.2351 175.766 29.8252 174.488 29.0054C173.211 28.1615 172.198 26.956 171.45 25.3888C170.727 23.7975 170.365 21.9289 170.365 19.783C170.365 17.6371 170.727 15.7806 171.45 14.2134C172.198 12.6221 173.211 11.4165 174.488 10.5967C175.766 9.75286 177.201 9.33092 178.792 9.33092ZM184.434 19.783C184.434 18.698 184.157 17.8541 183.602 17.2514C183.048 16.6486 182.337 16.3472 181.469 16.3472C180.601 16.3472 179.889 16.6486 179.335 17.2514C178.78 17.8541 178.503 18.698 178.503 19.783C178.503 20.868 178.78 21.7119 179.335 22.3146C179.889 22.9174 180.601 23.2188 181.469 23.2188C182.337 23.2188 183.048 22.9174 183.602 22.3146C184.157 21.7119 184.434 20.868 184.434 19.783Z" fill="#00071A"/>
<path d="M201.093 19.783C201.093 17.6612 201.527 15.8168 202.395 14.2495C203.287 12.6582 204.517 11.4406 206.084 10.5967C207.675 9.75286 209.483 9.33092 211.509 9.33092C214.161 9.33092 216.391 10.0784 218.199 11.5732C220.032 13.0681 221.189 15.1417 221.671 17.7939H213.172C212.859 16.733 212.244 16.2025 211.328 16.2025C210.677 16.2025 210.158 16.5039 209.773 17.1067C209.411 17.7095 209.23 18.6016 209.23 19.783C209.23 20.9644 209.411 21.8565 209.773 22.4593C210.158 23.0621 210.677 23.3635 211.328 23.3635C212.244 23.3635 212.859 22.833 213.172 21.7722H221.671C221.189 24.4244 220.032 26.4979 218.199 27.9928C216.391 29.4876 214.161 30.2351 211.509 30.2351C209.483 30.2351 207.675 29.8131 206.084 28.9693C204.517 28.1254 203.287 26.9198 202.395 25.3526C201.527 23.7613 201.093 21.9048 201.093 19.783Z" fill="#00071A"/>
<path d="M223.132 19.783C223.132 17.6371 223.493 15.7806 224.217 14.2134C224.964 12.6221 225.977 11.4165 227.255 10.5967C228.533 9.75286 229.967 9.33092 231.558 9.33092C232.885 9.33092 234.03 9.6082 234.994 10.1628C235.959 10.6932 236.694 11.4286 237.2 12.3689V9.58409H245.193V29.9819H237.2V27.1971C236.694 28.1374 235.959 28.8849 234.994 29.4394C234.03 29.9699 232.885 30.2351 231.558 30.2351C229.967 30.2351 228.533 29.8252 227.255 29.0054C225.977 28.1615 224.964 26.956 224.217 25.3888C223.493 23.7975 223.132 21.9289 223.132 19.783ZM237.2 19.783C237.2 18.698 236.923 17.8541 236.369 17.2514C235.814 16.6486 235.103 16.3472 234.235 16.3472C233.367 16.3472 232.655 16.6486 232.101 17.2514C231.546 17.8541 231.269 18.698 231.269 19.783C231.269 20.868 231.546 21.7119 232.101 22.3146C232.655 22.9174 233.367 23.2188 234.235 23.2188C235.103 23.2188 235.814 22.9174 236.369 22.3146C236.923 21.7119 237.2 20.868 237.2 19.783Z" fill="#00071A"/>
<path d="M256.827 12.3689C257.334 11.4286 258.057 10.6932 258.997 10.1628C259.962 9.6082 261.107 9.33092 262.433 9.33092C264.025 9.33092 265.459 9.75286 266.737 10.5967C268.015 11.4165 269.015 12.6221 269.739 14.2134C270.486 15.7806 270.86 17.6371 270.86 19.783C270.86 21.9289 270.486 23.7975 269.739 25.3888C269.015 26.956 268.015 28.1615 266.737 29.0054C265.459 29.8252 264.025 30.2351 262.433 30.2351C261.107 30.2351 259.962 29.9699 258.997 29.4394C258.057 28.8849 257.334 28.1374 256.827 27.1971V39.7468H248.798V9.58409H256.827V12.3689ZM262.723 19.783C262.723 18.698 262.445 17.8541 261.891 17.2514C261.336 16.6486 260.625 16.3472 259.757 16.3472C258.889 16.3472 258.178 16.6486 257.623 17.2514C257.069 17.8541 256.791 18.698 256.791 19.783C256.791 20.868 257.069 21.7119 257.623 22.3146C258.178 22.9174 258.889 23.2188 259.757 23.2188C260.625 23.2188 261.336 22.9174 261.891 22.3146C262.445 21.7119 262.723 20.868 262.723 19.783Z" fill="#00071A"/>
<path d="M277.431 7.9566C276.033 7.9566 274.911 7.58288 274.067 6.83544C273.224 6.08801 272.802 5.14768 272.802 4.01447C272.802 2.85714 273.224 1.90476 274.067 1.15732C274.911 0.385775 276.033 0 277.431 0C278.805 0 279.914 0.385775 280.758 1.15732C281.602 1.90476 282.024 2.85714 282.024 4.01447C282.024 5.14768 281.602 6.08801 280.758 6.83544C279.914 7.58288 278.805 7.9566 277.431 7.9566ZM281.409 9.58409V29.9819H273.38V9.58409H281.409Z" fill="#00071A"/>
<path d="M297.73 23.1465V29.9819H294.692C289.098 29.9819 286.301 27.1971 286.301 21.6275V16.2749H283.77V9.58409H286.301V4.66546H294.33V9.58409H297.658V16.2749H294.33V21.7722C294.33 22.2544 294.439 22.604 294.656 22.821C294.897 23.038 295.283 23.1465 295.813 23.1465H297.73Z" fill="#00071A"/>
<path d="M299.703 19.783C299.703 17.6371 300.064 15.7806 300.788 14.2134C301.535 12.6221 302.548 11.4165 303.826 10.5967C305.103 9.75286 306.538 9.33092 308.129 9.33092C309.456 9.33092 310.601 9.6082 311.565 10.1628C312.53 10.6932 313.265 11.4286 313.771 12.3689V9.58409H321.764V29.9819H313.771V27.1971C313.265 28.1374 312.53 28.8849 311.565 29.4394C310.601 29.9699 309.456 30.2351 308.129 30.2351C306.538 30.2351 305.103 29.8252 303.826 29.0054C302.548 28.1615 301.535 26.956 300.788 25.3888C300.064 23.7975 299.703 21.9289 299.703 19.783ZM313.771 19.783C313.771 18.698 313.494 17.8541 312.94 17.2514C312.385 16.6486 311.674 16.3472 310.806 16.3472C309.938 16.3472 309.226 16.6486 308.672 17.2514C308.117 17.8541 307.84 18.698 307.84 19.783C307.84 20.868 308.117 21.7119 308.672 22.3146C309.226 22.9174 309.938 23.2188 310.806 23.2188C311.674 23.2188 312.385 22.9174 312.94 22.3146C313.494 21.7119 313.771 20.868 313.771 19.783Z" fill="#00071A"/>
<path d="M333.398 3.21881V29.9819H325.369V3.21881H333.398Z" fill="#00071A"/>
</svg>
