<svg width="22" height="22" viewBox="0 0 22 22" fill="none" xmlns="http://www.w3.org/2000/svg">
<path d="M21.418 15.9573L21.4043 2.24438C21.4043 1.17798 20.6934 0.453369 19.6133 0.453369H5.88672C4.875 0.453369 4.13672 1.21899 4.13672 2.13501C4.13672 3.03735 4.91602 3.77563 5.85938 3.77563H10.8223L16.1133 3.58423L13.666 5.75806L1.04688 18.3909C0.691406 18.7463 0.486328 19.1975 0.486328 19.635C0.486328 20.5237 1.30664 21.3713 2.22266 21.3713C2.67383 21.3713 3.09766 21.1799 3.4668 20.8108L16.0996 8.19165L18.2871 5.74438L18.0684 10.8303V15.9846C18.0684 16.9417 18.8066 17.7209 19.7227 17.7209C20.6387 17.7209 21.418 16.9553 21.418 15.9573Z" fill="#00071A"/>
</svg>
