<svg width="315" height="373" viewBox="0 0 315 373" fill="none" xmlns="http://www.w3.org/2000/svg">
<g opacity="0.25">
<mask id="path-1-outside-1_422_387" maskUnits="userSpaceOnUse" x="-117.587" y="-2.18924" width="443.618" height="376.678" fill="black">
<rect fill="white" x="-117.587" y="-2.18924" width="443.618" height="376.678"/>
<path fill-rule="evenodd" clip-rule="evenodd" d="M-99.9998 121.672C-103.261 122.859 -104.953 126.438 -103.778 129.666L-89.9509 167.655C-88.7761 170.883 -85.1799 172.537 -81.9185 171.35L246.412 51.8476C249.674 50.6606 251.365 47.0816 250.19 43.8538L236.363 5.86482C235.188 2.63701 231.592 0.982643 228.331 2.16968L-99.9998 121.672ZM-20.2257 370.176L34.5069 350.255C36.0731 349.685 37.351 348.522 38.0595 347.023L105.4 204.539L246.901 270.975C248.417 271.687 250.161 271.763 251.743 271.187L308.547 250.512C313.806 248.598 314.152 241.348 309.095 239.017L85.4777 135.969C82.3375 134.522 78.6408 135.819 77.1674 138.947L-28.0335 361.72C-30.4115 366.756 -25.4858 372.091 -20.2257 370.176Z"/>
</mask>
<path d="M38.0595 347.023L39.4639 347.687L38.0595 347.023ZM105.4 204.539L106.061 203.133L104.658 202.474L103.996 203.875L105.4 204.539ZM246.901 270.975L246.24 272.381L246.901 270.975ZM251.743 271.187L252.275 272.647L251.743 271.187ZM308.547 250.512L308.016 249.053L308.547 250.512ZM309.095 239.017L308.445 240.428L309.095 239.017ZM85.4777 135.969L86.1278 134.558L86.1278 134.558L85.4777 135.969ZM77.1674 138.947L78.5719 139.61L78.5726 139.608L77.1674 138.947ZM-28.0335 361.72L-29.4381 361.057L-28.0335 361.72ZM-102.318 129.135C-103.194 126.727 -101.938 124.031 -99.4685 123.132L-100.531 120.213C-104.584 121.688 -106.711 126.149 -105.237 130.197L-102.318 129.135ZM-88.4913 167.124L-102.318 129.135L-105.237 130.197L-91.4105 168.186L-88.4913 167.124ZM-82.4498 169.891C-84.9193 170.789 -87.6151 169.531 -88.4913 167.124L-91.4105 168.186C-89.9371 172.234 -85.4405 174.285 -81.3873 172.81L-82.4498 169.891ZM245.881 50.388L-82.4498 169.891L-81.3873 172.81L246.943 53.3072L245.881 50.388ZM248.731 44.3851C249.607 46.7926 248.35 49.4892 245.881 50.388L246.943 53.3072C250.997 51.832 253.123 47.3707 251.65 43.3226L248.731 44.3851ZM234.904 6.39607L248.731 44.3851L251.65 43.3226L237.823 5.33357L234.904 6.39607ZM228.862 3.62928C231.332 2.73044 234.027 3.98856 234.904 6.39607L237.823 5.33357C236.35 1.28544 231.853 -0.765173 227.8 0.710081L228.862 3.62928ZM-99.4685 123.132L228.862 3.62928L227.8 0.710081L-100.531 120.213L-99.4685 123.132ZM33.9757 348.795L-20.7569 368.716L-19.6944 371.636L35.0382 351.715L33.9757 348.795ZM36.6552 346.36C36.1225 347.487 35.1596 348.364 33.9757 348.795L35.0382 351.715C36.9866 351.005 38.5795 349.558 39.4639 347.687L36.6552 346.36ZM103.996 203.875L36.6552 346.36L39.4639 347.687L106.805 205.202L103.996 203.875ZM247.561 269.569L106.061 203.133L104.74 205.945L246.24 272.381L247.561 269.569ZM251.212 269.728C250.016 270.163 248.7 270.104 247.561 269.569L246.24 272.381C248.133 273.269 250.306 273.363 252.275 272.647L251.212 269.728ZM308.016 249.053L251.212 269.728L252.275 272.647L309.079 251.972L308.016 249.053ZM308.445 240.428C312.211 242.163 312.004 247.601 308.016 249.053L309.079 251.972C315.609 249.595 316.093 240.532 309.745 237.607L308.445 240.428ZM84.8276 137.379L308.445 240.428L309.745 237.607L86.1278 134.558L84.8276 137.379ZM78.5726 139.608C79.6735 137.271 82.4424 136.28 84.8276 137.379L86.1278 134.558C82.2326 132.763 77.608 134.366 75.7622 138.285L78.5726 139.608ZM-26.629 362.384L78.5719 139.61L75.7629 138.283L-29.4381 361.057L-26.629 362.384ZM-20.7569 368.716C-24.7453 370.168 -28.4 366.134 -26.629 362.384L-29.4381 361.057C-32.423 367.378 -26.2263 374.013 -19.6944 371.636L-20.7569 368.716Z" fill="#00071A" mask="url(#path-1-outside-1_422_387)"/>
</g>
</svg>
