<svg width="261" height="40" viewBox="0 0 261 40" fill="none" xmlns="http://www.w3.org/2000/svg">
<path fill-rule="evenodd" clip-rule="evenodd" d="M148.448 0.19766C148.337 0.307945 148.246 9.17293 148.246 19.8974C148.246 37.1003 148.301 39.4419 148.712 39.7821C149.027 40.0437 149.276 40.0693 149.484 39.8614C149.686 39.6598 149.788 32.8935 149.782 20.077C149.777 9.36427 149.769 0.463728 149.764 0.297999C149.754 -0.0388826 148.76 -0.114513 148.448 0.19766ZM65.2934 14.8797V29.1604L67.4804 29.7052C68.833 30.0424 70.7029 30.2422 72.3822 30.2295C76.1241 30.2009 78.1527 29.4214 80.387 27.1539C82.5848 24.9235 83.2183 23.0492 83.0297 19.3324C82.8885 16.5527 82.3682 15.1383 80.8036 13.2803C78.7572 10.851 73.8832 9.80179 70.1467 10.9866C69.5238 11.184 69.5165 11.1243 69.5165 5.8927V0.599324H67.405H65.2934V14.8797ZM37.7337 3.20157C36.0837 4.85012 37.1971 7.65033 39.5026 7.65033C41.898 7.65033 42.9697 4.72657 41.1384 3.18741C39.9388 2.17917 38.7527 2.18399 37.7337 3.20157ZM8.02026 10.5521C4.75884 11.2277 1.8579 13.6967 0.851303 16.6539C0.0983908 18.8656 0.170786 22.2559 1.01842 24.4634C1.85338 26.6389 4.26746 28.9456 6.47582 29.6784C8.97919 30.5088 12.8376 30.2856 14.9717 29.1866C15.423 28.9543 15.3741 28.7654 14.5193 27.4399C13.7428 26.2358 13.4466 25.9926 12.9576 26.1583C12.6258 26.2707 11.5399 26.3605 10.5444 26.3578C6.92528 26.3485 4.91962 24.432 4.71329 20.786C4.48585 16.7639 6.53736 14.3479 10.2015 14.3226C11.2195 14.3153 12.3604 14.3774 12.7362 14.4603C13.3057 14.5859 13.5685 14.3512 14.3132 13.051L15.207 11.491L13.7805 11.0282C11.8642 10.4059 9.6211 10.2206 8.02026 10.5521ZM23.5123 10.5696C18.7595 11.1713 15.5216 15.1289 15.5216 20.3361C15.5216 23.4919 16.3599 25.625 18.3779 27.6032C22.0746 31.2272 28.2617 31.1956 31.9273 27.5339C33.7749 25.6886 34.6301 23.5262 34.6536 20.6426C34.6793 17.4542 33.9653 15.4079 32.1433 13.4508C29.9763 11.1228 26.9972 10.1281 23.5123 10.5696ZM52.1718 10.4234C49.7526 10.7531 47.5258 11.2259 46.3651 11.6561L45.0831 12.1316V20.9797V29.8279H47.3454H49.6078V22.33V14.8318L50.2865 14.6501C51.5733 14.3057 55.0558 14.4543 55.8986 14.8897C57.3143 15.621 57.4506 16.3656 57.4506 23.3635V29.8279H59.5622H61.6737V22.857C61.6737 18.2244 61.5497 15.4724 61.3039 14.6531C60.8342 13.0871 59.1423 11.3862 57.5942 10.9233C56.1801 10.5009 53.4508 10.2493 52.1718 10.4234ZM90.1878 10.5506C89.3631 10.6952 88.1074 11.0351 87.3976 11.306L86.1071 11.7981V13.7211V15.6442L87.54 15.0201C89.5357 14.1514 92.3582 13.9444 93.5832 14.5772C94.7659 15.1883 95.1566 15.8925 95.1566 17.4136V18.5984L92.2155 18.7406C90.1785 18.8394 88.8542 19.069 87.9071 19.4885C85.3524 20.6194 84.0028 23.1089 84.5723 25.6403C84.9603 27.3654 85.7391 28.3245 87.4769 29.2177C88.6919 29.8423 89.4654 29.987 92.1111 30.0849C93.8691 30.15 96.2111 30.0376 97.3565 29.833L99.4255 29.4635L99.3271 22.0374C99.2448 15.8075 99.1479 14.4654 98.7278 13.707C98.0828 12.5429 96.7248 11.2635 95.7402 10.8923C94.5143 10.4298 91.8221 10.2643 90.1878 10.5506ZM106.836 10.5581C104.129 11.2246 102.528 12.8102 102.208 15.1428C101.687 18.9407 103.261 20.7742 108.215 22.1386C110.991 22.9034 111.876 24.3389 110.567 25.9525C110.061 26.5757 109.734 26.6633 107.927 26.6585C106.192 26.654 105.59 26.5033 104.131 25.7081L102.396 24.7632V26.7977V28.8323L103.527 29.3126C105.327 30.0767 105.938 30.1885 108.267 30.1795C112.762 30.1617 115.123 28.1489 115.105 24.3513C115.09 21.2657 113.743 19.8091 109.804 18.6219C106.788 17.7128 106.318 17.3509 106.318 15.9392C106.318 15.0289 106.483 14.6676 107.075 14.2795C108.146 13.5783 110.695 13.8407 112.648 14.8529L114.187 15.6508L114.099 13.6325L114.01 11.6143L112.643 11.1086C110.865 10.4505 108.271 10.2047 106.836 10.5581ZM124.034 10.5533C121.165 11.2698 119.219 12.9323 117.875 15.8162C117.137 17.3994 117.033 17.9801 117.037 20.4868C117.041 23.7176 117.553 25.2465 119.293 27.2259C121.931 30.2274 127.899 31.1555 131.88 29.183L133.315 28.4719L133.405 26.7393C133.508 24.771 133.41 24.7132 131.568 25.6593C129.695 26.6218 126.163 26.7803 124.358 25.9823C122.824 25.3047 121.5 23.7724 121.214 22.3447L121.023 21.3908H127.546H134.069V19.4638C134.069 15.4128 132.325 12.1943 129.491 11.0149C128.047 10.4138 125.467 10.1956 124.034 10.5533ZM163.631 10.8408C163.631 11.0044 165.208 15.3435 167.137 20.4832L170.643 29.8279H171.888H173.132L176.536 20.8634C180.779 9.68789 180.569 10.4734 179.282 10.5964L178.26 10.6937L175.116 19.2152L171.971 27.7364L168.816 19.1399L165.661 10.5431H164.646C164.088 10.5431 163.631 10.6771 163.631 10.8408ZM37.2402 20.3361V29.8279H39.5026H41.7649V20.3361V10.8444H39.5026H37.2402V20.3361ZM208.576 14.0083V15.6656H207.52C206.548 15.6656 206.464 15.7373 206.464 16.5696C206.464 17.4018 206.548 17.4735 207.52 17.4735H208.576V22.4752C208.576 29.0971 209.063 30.1292 212.19 30.1292C214.114 30.1292 214.911 29.6871 214.911 28.6195C214.911 27.7921 214.849 27.7303 214.31 28.0184C213.343 28.5352 211.62 28.4773 211.049 27.9087C210.617 27.4775 210.522 26.6193 210.441 22.4354L210.345 17.4735H212.326H214.307V16.5696V15.6656H212.347H210.386V14.0083C210.386 12.3679 210.377 12.351 209.481 12.351C208.585 12.351 208.576 12.3679 208.576 14.0083ZM28.1094 15.0048C29.5512 16.0305 30.3883 18.0524 30.3732 20.4726C30.3512 24.0054 28.6807 26.1665 25.7553 26.4473C23.8797 26.6275 23.0308 26.3997 21.8366 25.396C18.577 22.656 19.2102 16.2791 22.912 14.5678C24.2368 13.9553 26.955 14.184 28.1094 15.0048ZM74.7884 14.4949C77.4251 15.2262 79.137 18.1401 78.73 21.2042C78.2706 24.6622 76.0273 26.5178 72.3164 26.5091C68.9784 26.5012 69.2149 26.9487 69.2149 20.6389V15.1361L70.0444 14.8149C71.8507 14.1162 73.1149 14.0309 74.7884 14.4949ZM128.272 14.6293C129.115 15.2187 129.846 16.603 129.846 17.6091V18.3775H125.48H121.113L121.417 17.5787C121.952 16.1721 122.659 15.1708 123.473 14.6664C124.514 14.0206 127.371 13.9986 128.272 14.6293ZM183.913 15.7665C178.209 17.833 177.856 27.0578 183.386 29.5672C185.036 30.316 188.11 30.3003 189.798 29.5347C190.899 29.0357 191.08 28.8235 191.08 28.0347C191.08 27.5294 191.03 27.1159 190.968 27.1159C190.906 27.1159 190.208 27.4019 189.417 27.7517C187.61 28.5499 184.867 28.4454 183.611 27.5309C182.665 26.8429 181.428 24.6068 181.428 23.5868V22.8974H186.556H191.684L191.677 21.3154C191.67 19.5888 190.927 17.6462 189.936 16.7669C188.525 15.5134 185.842 15.0677 183.913 15.7665ZM196.287 15.803C195.251 16.0374 194.267 16.3137 194.1 16.4171C193.91 16.5343 193.795 19.0941 193.795 23.2165V29.8279H194.851H195.907V23.8215C195.907 17.0848 195.678 17.6887 198.373 17.3093C200.12 17.0631 201.724 17.5564 202.538 18.5905C203.095 19.2974 203.146 19.8055 203.146 24.5953V29.8279H204.202H205.258L205.251 24.4793C205.243 18.1877 204.936 17.0577 202.982 16.1311C201.469 15.414 198.62 15.2745 196.287 15.803ZM241.721 16.2062C239.454 17.3895 238.346 19.2203 238.186 22.0482C238.119 23.2288 238.238 24.7433 238.462 25.5394C238.979 27.3853 240.93 29.362 242.706 29.8396C244.411 30.2985 247.348 30.0855 248.771 29.4003C249.69 28.957 249.902 28.6928 249.902 27.9855C249.902 26.9529 249.783 26.9339 248.243 27.7186C246.776 28.4656 244.215 28.5138 242.756 27.8222C241.514 27.2334 240.371 25.6099 240.085 24.0273L239.88 22.8974H245.227H250.574L250.36 21.1843C249.983 18.166 249.202 16.932 247.036 15.9338C245.289 15.128 243.623 15.2136 241.721 16.2062ZM254.225 15.6782C253.7 15.8394 252.919 16.3876 252.491 16.8962C251.86 17.6453 251.712 18.1361 251.712 19.4785C251.712 20.8912 251.836 21.26 252.554 21.9777C253.018 22.4409 254.23 23.1231 255.247 23.4934C257.614 24.3555 258.348 25.0359 258.348 26.3674C258.348 28.5755 255.068 29.1348 252.541 27.3573L251.712 26.7736V27.9666C251.712 29.0785 251.794 29.193 252.924 29.6443C254.471 30.2627 256.913 30.266 258.209 29.6513C259.941 28.8302 260.701 27.0225 260.159 25.0115C259.779 23.601 258.877 22.8365 256.588 21.9838C255.648 21.6336 254.573 21.062 254.2 20.7137C253.266 19.8422 253.317 18.5824 254.316 17.7968C255.319 17.0092 256.679 17.0014 258.197 17.7749C259.743 18.5622 259.856 18.542 259.856 17.4814C259.856 16.7868 259.649 16.4779 258.935 16.1091C257.77 15.5074 255.468 15.2968 254.225 15.6782ZM216.419 21.1696C216.419 27.3374 216.653 28.2513 218.513 29.3424C219.664 30.0171 222.728 30.2988 225.589 29.993L227.58 29.7799V22.7036V15.6273L226.599 15.7219L225.619 15.8162L225.538 22.0311L225.456 28.2456L223.94 28.3911C221.769 28.5997 220.097 28.2149 219.175 27.2943C218.384 26.5042 218.379 26.4723 218.275 21.0828L218.17 15.6656H217.295H216.419V21.1696ZM232.63 16.0901C230.524 16.8519 230.596 16.5891 230.596 23.5368V29.8279H231.652H232.708V23.9445V18.0611L233.537 17.7387C233.994 17.5615 235.223 17.482 236.269 17.5621L238.171 17.7083L238.079 16.7621L237.987 15.8162L235.875 15.7478C234.672 15.709 233.276 15.8563 232.63 16.0901ZM187.598 17.5989C188.759 18.0834 189.475 19.0223 189.756 20.4271L189.949 21.3908H185.839C182.04 21.3908 181.729 21.3486 181.729 20.8327C181.729 19.9326 183.014 18.2696 184.149 17.7001C185.421 17.0613 186.251 17.0369 187.598 17.5989ZM247.27 18.3215C247.75 18.8009 248.188 19.6388 248.291 20.2759L248.472 21.3908H244.361C240.559 21.3908 240.249 21.3486 240.249 20.8327C240.249 19.9393 241.529 18.2732 242.668 17.6832C244.138 16.9218 246.148 17.2008 247.27 18.3215ZM95.1566 24.2353V26.7781L94.0254 26.8719C92.3211 27.0126 90.0207 26.5998 89.4038 26.042C88.234 24.9844 88.6186 22.9203 90.1236 22.179C90.7033 21.8934 91.8918 21.7032 93.1204 21.699L95.1566 21.6921V24.2353Z" fill="#00071A"/>
</svg>
