<svg width="220" height="40" viewBox="0 0 220 40" fill="none" xmlns="http://www.w3.org/2000/svg">
<path fill-rule="evenodd" clip-rule="evenodd" d="M211.327 7.85038C211.327 12.1681 211.264 15.7008 211.187 15.7008C211.11 15.7008 210.55 15.3637 209.942 14.9517C207.143 13.052 202.833 12.6065 199.484 13.8705C195.294 15.4517 191.932 21.0132 191.932 26.3625C191.932 32.0259 194.404 36.2922 199.006 38.5718C200.83 39.4751 201.252 39.5598 203.932 39.5598C207.161 39.5598 208.843 38.9847 210.903 37.176L211.927 36.2771L212.128 37.5334L212.329 38.7901H215.83H219.331V19.3951V0H215.329H211.327V7.85038ZM14.9135 2.01801C11.9322 2.65835 8.14029 4.65912 5.8529 6.79904C3.58307 8.92234 1.77132 12.0973 0.772014 15.7029C-1.08868 22.4173 1.16484 30.3936 6.27221 35.1734C11.6474 40.2035 20.6264 41.4771 27.3562 38.1639C29.1494 37.281 32.7865 34.2437 32.7566 33.6535C32.7495 33.5156 31.8429 32.7367 30.7417 31.9227L28.7394 30.4425L27.9066 31.3233C27.4485 31.8079 26.4424 32.6354 25.6703 33.1625C21.1975 36.2167 14.0484 35.5616 9.87507 31.7146C3.91247 26.2184 4.17231 15.3122 10.3997 9.67659C12.9478 7.37074 14.8605 6.6679 18.662 6.6405L21.6411 6.61895L25.0503 8.34603L28.4595 10.0731L30.3064 8.70068C31.3223 7.94582 32.1535 7.27746 32.1535 7.21558C32.1535 6.78488 29.1796 4.44362 27.5039 3.55484C23.8426 1.61318 19.3512 1.06488 14.9135 2.01801ZM67.6767 2.36681C67.3189 2.437 66.6262 2.91203 66.1374 3.42246C65.0238 4.58462 64.8939 6.61864 65.864 7.70661C68.111 10.2267 71.8672 8.98514 71.8672 5.72247C71.8672 5.02086 71.6412 4.12437 71.3651 3.73032C70.9027 3.06996 69.131 2.09898 68.5676 2.19688C68.4352 2.21996 68.0341 2.29631 67.6767 2.36681ZM106.347 20.6265V38.7901H110.349H114.352V31.7094V24.6286H121.894H129.437V20.9343V17.24H121.894H114.352V13.5458V9.85146H122.51H130.668V6.15716V2.46286H118.508H106.347V20.6265ZM175.888 13.6452C174.606 14.1233 173.268 15.0269 172.383 16.0114L171.767 16.6967L171.613 15.352L171.459 14.0075L167.842 13.9207L164.225 13.8342V26.312V38.7901H168.054H171.883L171.979 30.8628C172.067 23.6259 172.128 22.8483 172.68 21.9349C173.81 20.0671 177.226 19.4523 178.761 20.8408C180.005 21.9672 180.076 22.4425 180.233 30.7858L180.387 38.944L184.35 39.0305L188.313 39.1171L188.167 29.6409C188.044 21.6692 187.935 19.9203 187.481 18.6254C186.757 16.5548 185.733 15.2673 184.009 14.2569C182.781 13.5371 182.168 13.4014 179.787 13.3222C177.988 13.2625 176.606 13.377 175.888 13.6452ZM45.0836 14.2723C41.3656 15.2845 38.247 17.8558 36.6498 21.2265C35.753 23.1189 35.6939 23.4619 35.6939 26.7837C35.6939 30.1412 35.7447 30.4278 36.6781 32.3346C38.3889 35.8301 41.344 38.3055 44.9173 39.2359C51.1385 40.8558 57.5915 37.9543 60.2877 32.3251C61.1892 30.4432 61.2461 30.1131 61.2461 26.7772C61.2461 23.4061 61.1972 23.1309 60.257 21.221C59.1656 19.0041 57.074 16.6939 55.124 15.5514C52.4715 13.9971 48.127 13.4439 45.0836 14.2723ZM86.4603 14.4893C85.5971 14.8215 84.2927 15.6453 83.5615 16.3205C82.8303 16.9956 82.1857 17.5479 82.1294 17.5479C82.0727 17.5479 82.0265 16.8491 82.0265 15.9951V14.4422L79.7945 14.5327L77.5626 14.6233V26.7837V38.944L79.7481 39.0336L81.9332 39.1232L82.105 31.645C82.2565 25.0547 82.3538 23.9627 82.9245 22.4475C84.0341 19.5013 85.8744 18.341 89.1442 18.526C91.5055 18.6593 92.5522 19.2365 93.5712 20.9667C94.1401 21.9324 94.194 22.663 94.2817 30.5675L94.3766 39.1232L96.7446 39.0336L99.1126 38.944V29.8622C99.1126 19.6438 98.9883 18.9151 96.8373 16.5286C94.4972 13.9327 90.1355 13.0757 86.4603 14.4893ZM134.568 14.059C134.275 14.3511 134.339 26.9422 134.651 30.7165C134.852 33.1431 135.103 34.2674 135.728 35.5447C137.136 38.4231 140.434 39.9843 144.332 39.6183C146.685 39.3972 148.202 38.7716 149.727 37.394L150.916 36.3199L151.126 37.7185L151.335 39.1171L154.932 39.0305L158.529 38.944V26.4758V14.0075L154.766 13.921C151.068 13.8364 151.001 13.8468 150.845 14.5367C150.758 14.9231 150.651 18.4946 150.606 22.4736C150.518 30.3425 150.409 30.9025 148.731 32.1435C147.678 32.9226 145.21 32.9534 144.063 32.2013C142.594 31.2387 142.527 30.8261 142.421 22.0888L142.322 13.8536H138.547C136.472 13.8536 134.68 13.946 134.568 14.059ZM66.3258 26.6162V38.7901H68.6384H70.9507L70.8704 26.7067L70.7897 14.6233L68.5577 14.5327L66.3258 14.4422V26.6162ZM52.0322 19.2045C54.7808 20.4843 56.4743 23.3738 56.4743 26.7837C56.4743 31.6909 53.199 35.0897 48.47 35.0897C42.6189 35.0897 39.1379 29.8274 40.9506 23.7232C41.5238 21.793 43.7071 19.4098 45.3914 18.876C47.3546 18.2535 50.3036 18.3994 52.0322 19.2045ZM209.2 20.7949C210.751 21.5969 211.757 23.4954 211.891 25.8749C212.041 28.5209 211.594 29.8567 210.114 31.194C207.095 33.9216 201.894 32.9026 200.373 29.2859C199.326 26.7972 200.19 22.5124 201.975 21.3429C204.076 19.9668 207.148 19.7337 209.2 20.7949Z" fill="#00071A"/>
</svg>
