<svg width="282" height="72" viewBox="0 0 282 72" fill="none" xmlns="http://www.w3.org/2000/svg">
<path d="M94 64.5V5.36893H133.554V16.9757H107.711V29.1022H131.532V40.7379H107.711V52.8932H133.554V64.5H94Z" fill="#00071A"/>
<path d="M155.685 5.36893V64.5H142.141V5.36893H155.685Z" fill="#00071A"/>
<path d="M164.307 64.5V20.1517H177.851V64.5H164.307ZM171.093 14.9835C169.191 14.9835 167.557 14.3291 166.19 13.0202C164.824 11.692 164.14 10.0944 164.14 8.22732C164.14 6.37947 164.824 4.8011 166.19 3.49221C167.557 2.16407 169.191 1.5 171.093 1.5C173.013 1.5 174.648 2.16407 175.996 3.49221C177.362 4.8011 178.045 6.37947 178.045 8.22732C178.045 10.0944 177.362 11.692 175.996 13.0202C174.648 14.3291 173.013 14.9835 171.093 14.9835Z" fill="#00071A"/>
<path d="M197.995 20.1517L205.003 34.7612L212.26 20.1517H225.916L214.033 42.3258L226.359 64.5H212.814L205.003 49.775L197.386 64.5H183.647L196.001 42.3258L184.257 20.1517H197.995Z" fill="#00071A"/>
<path d="M232.1 64.5V20.1517H245.644V64.5H232.1ZM238.886 14.9835C236.984 14.9835 235.35 14.3291 233.983 13.0202C232.617 11.692 231.933 10.0944 231.933 8.22732C231.933 6.37947 232.617 4.8011 233.983 3.49221C235.35 2.16407 236.984 1.5 238.886 1.5C240.806 1.5 242.441 2.16407 243.789 3.49221C245.155 4.8011 245.838 6.37947 245.838 8.22732C245.838 10.0944 245.155 11.692 243.789 13.0202C242.441 14.3291 240.806 14.9835 238.886 14.9835Z" fill="#00071A"/>
<path d="M254.266 64.5V20.1517H267.423V28.236H267.866C268.641 25.3103 269.906 23.1352 271.661 21.7108C273.415 20.2672 275.455 19.5454 277.782 19.5454C278.41 19.5454 279.056 19.5935 279.721 19.6897C280.386 19.7667 281.004 19.8918 281.577 20.0651V32.3359C280.93 32.105 280.081 31.9221 279.028 31.7874C277.994 31.6526 277.071 31.5852 276.259 31.5852C274.652 31.5852 273.202 31.9606 271.91 32.7113C270.636 33.4427 269.629 34.4725 268.891 35.8006C268.17 37.1095 267.81 38.6494 267.81 40.4203V64.5H254.266Z" fill="#00071A"/>
<path fill-rule="evenodd" clip-rule="evenodd" d="M18.4645 2.82373C19.5958 5.26942 21.5062 8.12823 23.4383 10.1744C26.5472 9.21884 29.8578 8.70339 33.2924 8.70339C51.3002 8.70339 65.8984 22.8728 65.8984 40.3517C65.8984 57.8305 51.3002 72 33.2924 72C15.2847 72 0.686523 57.8305 0.686523 40.3517C0.686523 32.1803 3.87703 24.7323 9.11485 19.1171C7.73396 16.3908 5.34721 13.5642 3.12958 11.7137C2.0701 10.8297 1.98872 9.0134 3.14537 8.25269L13.9216 1.1652C15.2407 0.29768 17.8118 1.4129 18.4645 2.82373ZM19.6032 38.6125C13.1388 38.1448 9.09982 45.044 11.9998 50.6711C15.9038 58.2464 23.9723 63.4478 33.2925 63.4478C46.4332 63.4478 57.086 53.1079 57.086 40.3531C57.086 31.8022 52.2982 24.3367 45.1828 20.3444C43.7861 19.5607 41.9705 20.0393 41.4864 21.533L39.7682 26.8342C37.3124 34.4111 29.8065 39.3507 21.6457 38.7603L19.6032 38.6125Z" fill="#00071A"/>
</svg>
