<svg width="38" height="17" viewBox="0 0 38 17" fill="none" xmlns="http://www.w3.org/2000/svg">
<path d="M3.00195 16.9043H14.3984C15.2057 16.9043 15.7656 16.7806 16.0781 16.5332C16.3906 16.2858 16.5469 15.9342 16.5469 15.4785C16.5469 14.8926 16.3646 14.2741 16 13.623C15.6354 12.9655 15.1081 12.3568 14.418 11.7969C13.7344 11.2305 12.9108 10.7682 11.9473 10.4102C10.9837 10.0521 9.90299 9.87305 8.70508 9.87305C7.50716 9.87305 6.42643 10.0521 5.46289 10.4102C4.49935 10.7682 3.67253 11.2305 2.98242 11.7969C2.29883 12.3568 1.77148 12.9655 1.40039 13.623C1.03581 14.2741 0.853516 14.8926 0.853516 15.4785C0.853516 15.9342 1.00977 16.2858 1.32227 16.5332C1.63477 16.7806 2.19466 16.9043 3.00195 16.9043ZM8.70508 8.26172C9.39518 8.26172 10.0234 8.07943 10.5898 7.71484C11.1628 7.34375 11.6185 6.8457 11.957 6.2207C12.3021 5.5957 12.4746 4.89583 12.4746 4.12109C12.4746 3.36589 12.3021 2.68555 11.957 2.08008C11.6185 1.4681 11.1628 0.983073 10.5898 0.625C10.0169 0.260417 9.38867 0.078125 8.70508 0.078125C8.02148 0.078125 7.39323 0.260417 6.82031 0.625C6.2474 0.989583 5.78841 1.48112 5.44336 2.09961C5.10482 2.71159 4.9388 3.38867 4.94531 4.13086C4.94531 4.89909 5.11458 5.5957 5.45312 6.2207C5.79167 6.8457 6.24414 7.34375 6.81055 7.71484C7.38346 8.07943 8.01497 8.26172 8.70508 8.26172ZM19.2715 9.87305C18.5228 9.87305 17.8164 9.95117 17.1523 10.1074C16.4883 10.2572 15.8796 10.459 15.3262 10.7129C16.127 11.3574 16.765 12.0898 17.2402 12.9102C17.722 13.724 17.9629 14.5801 17.9629 15.4785C17.9629 16.0319 17.8424 16.5072 17.6016 16.9043H24.9746C25.7754 16.9043 26.332 16.7806 26.6445 16.5332C26.957 16.2858 27.1133 15.9342 27.1133 15.4785C27.1133 14.8926 26.931 14.2741 26.5664 13.623C26.2018 12.9655 25.6745 12.3568 24.9844 11.7969C24.3008 11.2305 23.4772 10.7682 22.5137 10.4102C21.5501 10.0521 20.4694 9.87305 19.2715 9.87305ZM19.2715 8.26172C19.9616 8.26172 20.5898 8.07943 21.1562 7.71484C21.7292 7.34375 22.1849 6.8457 22.5234 6.2207C22.8685 5.5957 23.041 4.89583 23.041 4.12109C23.041 3.36589 22.8685 2.68555 22.5234 2.08008C22.1849 1.4681 21.7292 0.983073 21.1562 0.625C20.5833 0.260417 19.9551 0.078125 19.2715 0.078125C18.5879 0.078125 17.9596 0.260417 17.3867 0.625C16.8138 0.989583 16.3548 1.48112 16.0098 2.09961C15.6712 2.71159 15.502 3.38867 15.502 4.13086C15.502 4.89909 15.6712 5.5957 16.0098 6.2207C16.3548 6.8457 16.8105 7.34375 17.377 7.71484C17.9499 8.07943 18.5814 8.26172 19.2715 8.26172ZM29.8184 9.87305C29.0697 9.87305 28.3633 9.95117 27.6992 10.1074C27.0417 10.2572 26.4362 10.459 25.8828 10.7129C26.6901 11.3509 27.3314 12.0801 27.8066 12.9004C28.2819 13.7207 28.5195 14.5801 28.5195 15.4785C28.5195 16.0319 28.4056 16.5072 28.1777 16.9043H35.5215C36.3288 16.9043 36.8887 16.7806 37.2012 16.5332C37.5137 16.2858 37.6699 15.9342 37.6699 15.4785C37.6699 14.8926 37.4876 14.2741 37.123 13.623C36.7585 12.9655 36.2311 12.3568 35.541 11.7969C34.8574 11.2305 34.0306 10.7682 33.0605 10.4102C32.097 10.0521 31.0163 9.87305 29.8184 9.87305ZM29.8184 8.26172C30.5085 8.26172 31.14 8.07943 31.7129 7.71484C32.2858 7.34375 32.7415 6.8457 33.0801 6.2207C33.4251 5.5957 33.5977 4.89583 33.5977 4.12109C33.5977 3.36589 33.4251 2.68555 33.0801 2.08008C32.735 1.4681 32.276 0.983073 31.7031 0.625C31.1302 0.260417 30.502 0.078125 29.8184 0.078125C29.1413 0.078125 28.5163 0.260417 27.9434 0.625C27.3704 0.989583 26.9115 1.48112 26.5664 2.09961C26.2279 2.71159 26.0586 3.38867 26.0586 4.13086C26.0586 4.89909 26.2279 5.5957 26.5664 6.2207C26.9115 6.8457 27.3672 7.34375 27.9336 7.71484C28.5065 8.07943 29.1348 8.26172 29.8184 8.26172Z" fill="#00071A"/>
</svg>
