<svg width="20" height="21" viewBox="0 0 20 21" fill="none" xmlns="http://www.w3.org/2000/svg">
<path d="M9.85742 20.0371C11.1921 20.0371 12.4453 19.7832 13.6172 19.2754C14.7891 18.7741 15.821 18.0775 16.7129 17.1855C17.6048 16.2936 18.3014 15.2617 18.8027 14.0898C19.3105 12.918 19.5645 11.6647 19.5645 10.3301C19.5645 9.00195 19.3105 7.75195 18.8027 6.58008C18.3014 5.4082 17.6016 4.3763 16.7031 3.48438C15.8112 2.59245 14.7793 1.89258 13.6074 1.38477C12.4355 0.876953 11.1823 0.623047 9.84766 0.623047C8.52604 0.623047 7.2793 0.876953 6.10742 1.38477C4.93555 1.89258 3.90039 2.59245 3.00195 3.48438C2.11003 4.3763 1.41016 5.4082 0.902344 6.58008C0.401042 7.75195 0.150391 9.00195 0.150391 10.3301C0.150391 11.6647 0.404297 12.918 0.912109 14.0898C1.41992 15.2617 2.11979 16.2936 3.01172 17.1855C3.90365 18.0775 4.93555 18.7741 6.10742 19.2754C7.2793 19.7832 8.5293 20.0371 9.85742 20.0371ZM9.85742 15.6621C9.73372 15.6621 9.62956 15.6263 9.54492 15.5547C9.4668 15.4766 9.42773 15.3691 9.42773 15.2324V14.6172C8.68555 14.5651 8.08008 14.373 7.61133 14.041C7.14258 13.709 6.83333 13.3086 6.68359 12.8398C6.66406 12.7747 6.64779 12.7096 6.63477 12.6445C6.62174 12.5794 6.61523 12.5176 6.61523 12.459C6.61523 12.2376 6.68685 12.0553 6.83008 11.9121C6.97331 11.7689 7.16862 11.6973 7.41602 11.6973C7.61133 11.6973 7.77409 11.7461 7.9043 11.8438C8.03451 11.9414 8.14193 12.0814 8.22656 12.2637C8.29818 12.498 8.43164 12.6999 8.62695 12.8691C8.82878 13.0319 9.0957 13.1361 9.42773 13.1816V11.0137L9.1543 10.9551C8.34701 10.7663 7.73177 10.4831 7.30859 10.1055C6.89193 9.72135 6.68359 9.20378 6.68359 8.55273C6.68359 7.84961 6.94076 7.27669 7.45508 6.83398C7.9694 6.39128 8.62695 6.13411 9.42773 6.0625V5.4375C9.42773 5.3138 9.4668 5.21289 9.54492 5.13477C9.62956 5.05013 9.73372 5.00781 9.85742 5.00781C9.97461 5.00781 10.0723 5.05013 10.1504 5.13477C10.235 5.21289 10.2773 5.3138 10.2773 5.4375V6.0625C10.9609 6.13411 11.5306 6.33594 11.9863 6.66797C12.4486 6.99349 12.7448 7.39062 12.875 7.85938C12.8945 7.92448 12.9108 7.98958 12.9238 8.05469C12.9368 8.11328 12.9434 8.17513 12.9434 8.24023C12.9434 8.44857 12.8717 8.61784 12.7285 8.74805C12.5853 8.87826 12.3965 8.94336 12.1621 8.94336C11.7975 8.94336 11.5241 8.76107 11.3418 8.39648C11.2507 8.16211 11.1139 7.97005 10.9316 7.82031C10.7559 7.67057 10.5378 7.57292 10.2773 7.52734V9.58789L10.5898 9.64648C11.4297 9.80924 12.0612 10.0859 12.4844 10.4766C12.9141 10.8672 13.1289 11.3945 13.1289 12.0586C13.1289 12.8008 12.862 13.3965 12.3281 13.8457C11.7943 14.2949 11.1107 14.5521 10.2773 14.6172V15.2324C10.2773 15.3626 10.235 15.4668 10.1504 15.5449C10.0723 15.623 9.97461 15.6621 9.85742 15.6621ZM9.42773 9.37305V7.50781C9.10872 7.55339 8.85482 7.66081 8.66602 7.83008C8.47721 7.99935 8.38281 8.19792 8.38281 8.42578C8.38281 8.65365 8.46419 8.84245 8.62695 8.99219C8.78971 9.14193 9.03711 9.26562 9.36914 9.36328L9.42773 9.37305ZM10.2773 11.209V13.1816C10.6549 13.1361 10.9414 13.0286 11.1367 12.8594C11.332 12.6836 11.4297 12.4655 11.4297 12.2051C11.4297 11.9707 11.3548 11.7786 11.2051 11.6289C11.0553 11.4727 10.7949 11.3457 10.4238 11.248L10.2773 11.209Z" fill="#00071A"/>
</svg>
