<svg width="23" height="22" viewBox="0 0 23 22" fill="none" xmlns="http://www.w3.org/2000/svg">
<path d="M12.1621 20.7207L21.2637 11.5996C21.5241 11.3522 21.7161 11.1211 21.8398 10.9062C21.9635 10.6849 22.0417 10.4473 22.0742 10.1934C22.1133 9.93294 22.1328 9.61393 22.1328 9.23633V5.74023C22.1328 5.38867 22.1003 5.09245 22.0352 4.85156C21.9766 4.61068 21.8691 4.38607 21.7129 4.17773C21.5566 3.96289 21.3418 3.72201 21.0684 3.45508L18.9688 1.3457C18.7018 1.07878 18.4609 0.870443 18.2461 0.720703C18.0378 0.564453 17.8132 0.453776 17.5723 0.388672C17.3379 0.323568 17.0417 0.291016 16.6836 0.291016H13.1875C12.8099 0.291016 12.4909 0.310547 12.2305 0.349609C11.9766 0.388672 11.7422 0.473307 11.5273 0.603516C11.319 0.727214 11.0879 0.916016 10.834 1.16992L1.71289 10.2812C0.990234 11.0039 0.625651 11.7526 0.619141 12.5273C0.619141 13.2956 0.986979 14.0475 1.72266 14.7832L7.66992 20.7207C8.39909 21.4499 9.14779 21.8112 9.91602 21.8047C10.6908 21.8047 11.4395 21.4434 12.1621 20.7207ZM14.9648 8.37695C14.5677 8.37695 14.2357 8.24023 13.9688 7.9668C13.7018 7.69336 13.5684 7.36133 13.5684 6.9707C13.5684 6.57357 13.7018 6.24154 13.9688 5.97461C14.2357 5.70117 14.5677 5.56445 14.9648 5.56445C15.3685 5.56445 15.7038 5.70117 15.9707 5.97461C16.2441 6.24154 16.3809 6.57357 16.3809 6.9707C16.3809 7.36133 16.2441 7.69336 15.9707 7.9668C15.7038 8.24023 15.3685 8.37695 14.9648 8.37695Z" fill="#00071A"/>
</svg>
