<svg width="18" height="21" viewBox="0 0 18 21" fill="none" xmlns="http://www.w3.org/2000/svg">
<path d="M4.06641 20.2129H14.75C15.7917 20.2129 16.5859 19.9395 17.1328 19.3926C17.6862 18.8522 17.9629 18.0645 17.9629 17.0293V8.11328C17.9629 7.07812 17.6862 6.28711 17.1328 5.74023C16.5859 5.19336 15.7917 4.91992 14.75 4.91992H12.3477V7.17578H14.5254C14.9095 7.17578 15.2025 7.27344 15.4043 7.46875C15.6061 7.65755 15.707 7.95703 15.707 8.36719V16.7656C15.707 17.1693 15.6061 17.4688 15.4043 17.6641C15.2025 17.8594 14.9095 17.957 14.5254 17.957H4.29102C3.9069 17.957 3.61393 17.8594 3.41211 17.6641C3.21029 17.4688 3.10938 17.1693 3.10938 16.7656V8.36719C3.10938 7.95703 3.21029 7.65755 3.41211 7.46875C3.61393 7.27344 3.9069 7.17578 4.29102 7.17578H6.50781V4.91992H4.06641C3.02474 4.91992 2.22721 5.19336 1.67383 5.74023C1.12695 6.2806 0.853516 7.07161 0.853516 8.11328V17.0293C0.853516 18.0645 1.12695 18.8522 1.67383 19.3926C2.22721 19.9395 3.02474 20.2129 4.06641 20.2129ZM9.4082 14.3535C9.54492 14.3535 9.67839 14.3275 9.80859 14.2754C9.9388 14.2168 10.0723 14.1224 10.209 13.9922L13.2754 11.043C13.4577 10.8542 13.5488 10.6426 13.5488 10.4082C13.5488 10.1543 13.4609 9.94922 13.2852 9.79297C13.1094 9.63672 12.901 9.55859 12.6602 9.55859C12.3997 9.55859 12.1784 9.65625 11.9961 9.85156L10.8438 11.082L10.2969 11.7852L10.4238 10.4277V1.0625C10.4238 0.795573 10.3262 0.561198 10.1309 0.359375C9.93555 0.157552 9.69466 0.0566406 9.4082 0.0566406C9.12174 0.0566406 8.8776 0.157552 8.67578 0.359375C8.48047 0.561198 8.38281 0.795573 8.38281 1.0625V10.4277L8.51953 11.7949L7.97266 11.082L6.81055 9.85156C6.63477 9.65625 6.41016 9.55859 6.13672 9.55859C5.90234 9.55859 5.69727 9.63672 5.52148 9.79297C5.3457 9.94922 5.25781 10.1543 5.25781 10.4082C5.25781 10.6426 5.34896 10.8542 5.53125 11.043L8.60742 13.9922C8.73763 14.1224 8.86784 14.2168 8.99805 14.2754C9.13477 14.3275 9.27148 14.3535 9.4082 14.3535Z" fill="#00071A"/>
</svg>
