<svg width="22" height="19" viewBox="0 0 22 19" fill="none" xmlns="http://www.w3.org/2000/svg">
<path d="M0.853516 17.4941C0.853516 17.7546 0.931641 17.9629 1.08789 18.1191C1.25065 18.2819 1.46224 18.3633 1.72266 18.3633H20.4043C20.7233 18.3633 20.9935 18.2559 21.2148 18.041C21.4362 17.8327 21.5469 17.5625 21.5469 17.2305C21.5469 16.9049 21.4362 16.6348 21.2148 16.4199C20.9935 16.2116 20.7233 16.1074 20.4043 16.1074H3.36328C3.19401 16.1074 3.10938 16.026 3.10938 15.8633V1.42969C3.10938 1.11068 3.00195 0.840495 2.78711 0.619141C2.57878 0.391276 2.31185 0.277344 1.98633 0.277344C1.6543 0.277344 1.38086 0.391276 1.16602 0.619141C0.957682 0.840495 0.853516 1.11068 0.853516 1.42969V17.4941ZM2.91406 12.3672L6.81055 8.33398C6.88216 8.24935 6.95703 8.20703 7.03516 8.20703C7.11979 8.20703 7.20117 8.24935 7.2793 8.33398L10.4434 11.6348C10.6712 11.8757 10.9056 12.0547 11.1465 12.1719C11.3874 12.2826 11.6315 12.3379 11.8789 12.3379C12.3737 12.3379 12.8522 12.1068 13.3145 11.6445L17.1328 7.79688L18.4902 9.1543C18.653 9.31706 18.8288 9.39844 19.0176 9.39844C19.2064 9.39844 19.3757 9.33659 19.5254 9.21289C19.6816 9.08268 19.7923 8.9069 19.8574 8.68555L21.2734 3.2168C21.3255 3.00846 21.306 2.81966 21.2148 2.65039C21.1302 2.47461 20.9967 2.3444 20.8145 2.25977C20.6387 2.16862 20.4499 2.14909 20.248 2.20117L14.7891 3.61719C14.5612 3.67578 14.3822 3.77995 14.252 3.92969C14.1283 4.07943 14.0664 4.2487 14.0664 4.4375C14.0664 4.6263 14.1478 4.80208 14.3105 4.96484L15.6387 6.29297L12.1133 9.90625C12.0417 9.98438 11.9668 10.0234 11.8887 10.0234C11.804 10.0234 11.7227 9.98438 11.6445 9.90625L8.48047 6.58594C8.2526 6.34505 8.01823 6.16927 7.77734 6.05859C7.54297 5.94792 7.29883 5.89258 7.04492 5.89258C6.79753 5.89258 6.55664 5.94792 6.32227 6.05859C6.0944 6.16276 5.85677 6.33854 5.60938 6.58594L1.41016 10.873L2.91406 12.3672Z" fill="#00071A"/>
</svg>
