<svg width="21" height="20" viewBox="0 0 21 20" fill="none" xmlns="http://www.w3.org/2000/svg">
<path d="M6.64453 6.82422C7.17839 6.82422 7.66341 6.69401 8.09961 6.43359C8.54232 6.16667 8.89714 5.8151 9.16406 5.37891C9.43099 4.9362 9.56445 4.45117 9.56445 3.92383C9.56445 3.38997 9.43099 2.90169 9.16406 2.45898C8.89714 2.01628 8.54232 1.66146 8.09961 1.39453C7.66341 1.1276 7.17839 0.994141 6.64453 0.994141C6.11719 0.994141 5.63216 1.1276 5.18945 1.39453C4.74674 1.66146 4.39193 2.01628 4.125 2.45898C3.86458 2.90169 3.73438 3.38997 3.73438 3.92383C3.73438 4.44466 3.86458 4.92643 4.125 5.36914C4.39193 5.81185 4.74349 6.16667 5.17969 6.43359C5.6224 6.69401 6.11068 6.82422 6.64453 6.82422ZM13.8125 6.82422C14.3398 6.82422 14.8249 6.69401 15.2676 6.43359C15.7103 6.16667 16.0618 5.8151 16.3223 5.37891C16.5892 4.9362 16.7227 4.45117 16.7227 3.92383C16.7227 3.38997 16.5892 2.90169 16.3223 2.45898C16.0618 2.01628 15.7103 1.66146 15.2676 1.39453C14.8249 1.1276 14.3398 0.994141 13.8125 0.994141C13.2786 0.994141 12.7904 1.1276 12.3477 1.39453C11.9115 1.66146 11.5599 2.01628 11.293 2.45898C11.026 2.90169 10.8926 3.38997 10.8926 3.92383C10.8926 4.45117 11.026 4.9362 11.293 5.37891C11.5599 5.8151 11.9115 6.16667 12.3477 6.43359C12.7904 6.69401 13.2786 6.82422 13.8125 6.82422ZM3.07031 13.2402C3.59766 13.2402 4.08268 13.11 4.52539 12.8496C4.97461 12.5827 5.32943 12.2279 5.58984 11.7852C5.85677 11.3424 5.99023 10.8574 5.99023 10.3301C5.99023 9.80273 5.85677 9.31771 5.58984 8.875C5.32943 8.42578 4.97461 8.07096 4.52539 7.81055C4.08268 7.54362 3.59766 7.41016 3.07031 7.41016C2.54297 7.41016 2.05794 7.54362 1.61523 7.81055C1.17253 8.07096 0.817708 8.42578 0.550781 8.875C0.283854 9.31771 0.150391 9.80273 0.150391 10.3301C0.150391 10.8574 0.280599 11.3424 0.541016 11.7852C0.807943 12.2279 1.16276 12.5827 1.60547 12.8496C2.04818 13.11 2.53646 13.2402 3.07031 13.2402ZM10.2383 13.2402C10.7656 13.2402 11.2474 13.11 11.6836 12.8496C12.1263 12.5827 12.4779 12.2279 12.7383 11.7852C13.0052 11.3424 13.1387 10.8574 13.1387 10.3301C13.1387 9.80273 13.0052 9.31771 12.7383 8.875C12.4779 8.42578 12.1263 8.07096 11.6836 7.81055C11.2474 7.54362 10.7656 7.41016 10.2383 7.41016C9.69792 7.41016 9.20638 7.54362 8.76367 7.81055C8.32747 8.07096 7.97591 8.42578 7.70898 8.875C7.44857 9.31771 7.31836 9.80273 7.31836 10.3301C7.31836 10.8574 7.44857 11.3424 7.70898 11.7852C7.97591 12.2279 8.32747 12.5827 8.76367 12.8496C9.20638 13.11 9.69792 13.2402 10.2383 13.2402ZM17.3867 13.2402C17.9141 13.2402 18.3991 13.11 18.8418 12.8496C19.291 12.5827 19.6458 12.2279 19.9062 11.7852C20.1732 11.3424 20.3066 10.8574 20.3066 10.3301C20.3066 9.80273 20.1732 9.31771 19.9062 8.875C19.6458 8.42578 19.291 8.07096 18.8418 7.81055C18.3991 7.54362 17.9141 7.41016 17.3867 7.41016C16.8594 7.41016 16.3743 7.54362 15.9316 7.81055C15.4889 8.07096 15.1341 8.42578 14.8672 8.875C14.6068 9.31771 14.4766 9.80273 14.4766 10.3301C14.4766 10.8574 14.6068 11.3424 14.8672 11.7852C15.1341 12.2279 15.4889 12.5827 15.9316 12.8496C16.3743 13.11 16.8594 13.2402 17.3867 13.2402ZM6.64453 19.666C7.17839 19.666 7.66667 19.5326 8.10938 19.2656C8.55208 18.9987 8.90365 18.6439 9.16406 18.2012C9.43099 17.7585 9.56445 17.2702 9.56445 16.7363C9.56445 16.209 9.43099 15.724 9.16406 15.2812C8.89714 14.8385 8.54232 14.487 8.09961 14.2266C7.66341 13.9596 7.17839 13.8262 6.64453 13.8262C6.11719 13.8262 5.63216 13.9596 5.18945 14.2266C4.74674 14.487 4.39193 14.8385 4.125 15.2812C3.86458 15.724 3.73438 16.209 3.73438 16.7363C3.73438 17.2637 3.86458 17.7487 4.125 18.1914C4.39193 18.6341 4.74349 18.9889 5.17969 19.2559C5.6224 19.5293 6.11068 19.666 6.64453 19.666ZM13.8125 19.666C14.3398 19.666 14.8249 19.5326 15.2676 19.2656C15.7103 18.9987 16.0618 18.6439 16.3223 18.2012C16.5892 17.7585 16.7227 17.2702 16.7227 16.7363C16.7227 16.209 16.5892 15.724 16.3223 15.2812C16.0618 14.8385 15.7103 14.487 15.2676 14.2266C14.8249 13.9596 14.3398 13.8262 13.8125 13.8262C13.2786 13.8262 12.7904 13.9596 12.3477 14.2266C11.9115 14.487 11.5599 14.8385 11.293 15.2812C11.026 15.724 10.8926 16.209 10.8926 16.7363C10.8926 17.2702 11.026 17.7585 11.293 18.2012C11.5599 18.6439 11.9115 18.9987 12.3477 19.2656C12.7904 19.5326 13.2786 19.666 13.8125 19.666Z" fill="#00071A"/>
</svg>
