<svg width="229" height="80" viewBox="0 0 229 80" fill="none" xmlns="http://www.w3.org/2000/svg">
<path fill-rule="evenodd" clip-rule="evenodd" d="M35.6745 0.168487C22.3993 1.88904 10.7898 10.0432 4.89711 21.7857C3.17372 25.2199 1.80087 29.1436 1.1206 32.5781C0.461124 35.9061 0.538356 44.5098 1.25741 47.867C2.40518 53.226 4.3981 57.9773 7.3963 62.5006C9.35391 65.4546 14.9093 71.0245 17.8662 72.9985C28.0429 79.7915 40.1042 81.7195 51.9091 78.4404C55.2745 77.5054 61.4068 74.4515 64.3609 72.2391C66.8623 70.3657 70.4963 66.8328 72.3984 64.4254C75.489 60.5136 78.0969 55.119 79.4887 49.7584C80.6217 45.3962 80.9325 37.898 80.1636 33.481C79.1325 27.5568 77.1326 22.5473 73.8331 17.6243C67.6403 8.38352 58.0177 2.19734 47.0772 0.422882C44.4639 -0.00110898 38.0807 -0.143596 35.6745 0.168487ZM46.9441 6.07347C54.1331 7.44885 60.2127 10.7812 65.4878 16.2376C68.3083 19.1548 70.0956 21.7189 71.7793 25.2628C81.336 45.3767 69.3429 69.2624 47.4463 73.7261C43.7158 74.4868 37.9202 74.5504 34.3347 73.8702C21.0387 71.348 10.5988 61.5527 7.10187 48.3188C6.4487 45.8473 6.35886 44.8083 6.36863 39.8285C6.38061 33.5141 6.77655 31.3727 8.83409 26.4944C12.0091 18.9663 18.997 11.8439 26.5185 8.46895C28.4036 7.62317 33.1346 6.19326 35.2016 5.8443C37.1807 5.51046 44.7756 5.65862 46.9441 6.07347ZM35.9897 11.2657L34.7288 11.4574L34.6481 37.9964L34.5677 64.5357L32.3144 63.7694C26.161 61.6766 21.2953 57.7008 18.0081 52.0798C17.3628 50.9765 16.7295 50.0737 16.6005 50.0737C15.9997 50.0737 12.8199 51.6811 12.8199 51.985C12.8199 52.4026 14.9853 56.1183 16.1151 57.6393C20.8881 64.0651 29.3048 68.8469 37.0142 69.5133L39.2997 69.7106V40.3477V10.9845L38.2752 11.0293C37.7118 11.0539 36.6832 11.1601 35.9897 11.2657ZM41.8216 40.2875V69.6775L43.4765 69.4726C51.0362 68.5376 57.1653 65.5662 62.4285 60.2845C64.6452 58.0602 66.3049 55.9014 67.6434 53.5012L68.6329 51.7277L66.5719 50.8517C65.4384 50.37 64.4668 50.0333 64.4126 50.1036C64.3587 50.1739 63.6257 51.2952 62.7841 52.5956C59.3464 57.9063 53.2845 62.3991 47.2594 64.1013L46.5501 64.3018V40.3225C46.5501 24.0472 46.6547 16.3435 46.8754 16.3435C47.0545 16.3435 48.3457 16.7849 49.7447 17.3245C54.9886 19.3468 60.382 23.8461 63.0627 28.4347C63.7358 29.5866 64.3741 30.5291 64.4813 30.5291C64.5885 30.5291 65.5515 30.1477 66.6214 29.6818L68.5671 28.8341L67.8373 27.3963C65.1127 22.0266 58.9253 16.2997 53.0093 13.6725C50.3752 12.5027 46.2825 11.3546 43.863 11.1065L41.8216 10.8975V40.2875ZM157.836 31.2362C156.8 31.79 156.214 32.401 155.629 33.5368C154.867 35.0174 154.833 35.3185 154.833 40.6166C154.833 45.9258 154.866 46.2133 155.635 47.7082C156.601 49.5848 157.827 50.3694 160.171 50.6112C164.487 51.0566 166.76 49.1337 167.418 44.4783L167.608 43.1385H165.594H163.581L163.437 44.8676C163.262 46.9756 162.567 47.867 161.096 47.867C160.323 47.867 159.912 47.6577 159.525 47.0667C158.314 45.2191 158.344 35.3424 159.564 33.9942C160.302 33.1793 161.964 33.1676 162.692 33.9721C162.994 34.3056 163.318 35.1568 163.413 35.8635L163.585 37.149H165.479H167.373L167.183 35.5423C166.961 33.6748 166.23 32.2847 164.978 31.3516C164.298 30.844 163.525 30.6653 161.668 30.5858C159.596 30.497 159.043 30.5909 157.836 31.2362ZM99.5096 38.5471C99.5096 42.7889 99.3715 46.613 99.2022 47.0585C98.9696 47.67 98.6717 47.867 97.9798 47.867C96.8311 47.867 96.3472 47.293 96.1297 45.6727L95.9591 44.3995H94.2666H92.5744L92.5757 46.0544C92.5779 49.1318 94.3454 50.7042 97.8026 50.7042C100.066 50.7042 101.971 49.8401 102.826 48.4253C103.397 47.4815 103.459 46.6925 103.559 39.1193L103.669 30.8443H101.589H99.5096V38.5471ZM196.602 32.4205V33.9967H198.336H200.07V32.4205V30.8443H198.336H196.602V32.4205ZM224.343 40.6166V50.3889H226.234H228.126V40.6166V30.8443H226.234H224.343V40.6166ZM203.537 33.5238V35.5729H202.592C201.681 35.5729 201.646 35.6255 201.646 36.9914C201.646 38.3573 201.681 38.41 202.592 38.41H203.537L203.539 42.9021C203.541 47.7558 203.858 49.5706 204.791 50.0699C205.119 50.2455 206.319 50.3889 207.457 50.3889H209.527V49.128C209.527 48.0105 209.442 47.867 208.777 47.867C207.446 47.867 207.296 47.2974 207.39 42.6225L207.478 38.2524L208.502 38.1537C209.468 38.0604 209.527 37.9835 209.527 36.8139C209.527 35.6057 209.497 35.5729 208.423 35.5729H207.32V33.5238V31.4748H205.429H203.537V33.5238ZM124.615 36.0363C123.527 36.7745 123.467 36.7827 123.467 36.1939C123.467 35.6451 123.248 35.5729 121.576 35.5729H119.685V42.9809V50.3889H121.576H123.467V45.3656C123.467 42.6029 123.602 39.9871 123.768 39.553C124.224 38.3532 125.226 37.9352 126.168 38.5525C126.933 39.054 126.935 39.0666 126.935 44.7219V50.3889H128.826H130.718V45.0157C130.718 39.7308 130.73 39.6296 131.492 38.8687C132.43 37.9305 132.739 37.9091 133.555 38.7252C134.138 39.3078 134.185 39.7759 134.185 44.8723V50.3889H136.1H138.014L137.912 43.7425L137.811 37.0961L136.781 36.1769C135.937 35.4228 135.47 35.2576 134.185 35.2576C132.902 35.2576 132.434 35.4231 131.596 36.1721L130.572 37.0866L129.531 36.1721C128.159 34.9676 126.266 34.9153 124.615 36.0363ZM145.455 35.7532C144.979 36.012 144.588 36.361 144.588 36.5287C144.588 36.6964 144.446 36.8338 144.273 36.8338C144.1 36.8338 143.958 36.5501 143.958 36.2033C143.958 35.6492 143.748 35.5729 142.224 35.5729H140.49V45.3452V55.1174H142.382H144.273V52.1227C144.273 49.1409 144.276 49.1305 144.896 49.7506C146.083 50.9384 148.748 50.9907 150.031 49.8508C151.416 48.6201 151.825 47.0168 151.825 42.8233C151.825 38.2747 151.315 36.6008 149.672 35.7513C148.48 35.135 146.593 35.1356 145.455 35.7532ZM171.765 35.885C170.394 36.5072 169.492 37.881 169.492 39.3456C169.492 39.9118 169.693 39.9862 171.226 39.9862C172.824 39.9862 172.959 39.9297 172.959 39.2611C172.959 38.2631 173.533 37.7795 174.718 37.7795C175.979 37.7795 176.498 38.3923 176.37 39.7292C176.276 40.7087 176.151 40.8105 174.378 41.3524C170.185 42.6341 169.341 43.3065 169.159 45.5078C168.988 47.5852 169.194 48.5073 170.043 49.4577C171.519 51.1089 174.76 51.0522 175.949 49.3543C176.382 48.7374 176.397 48.7424 176.601 49.5554C176.794 50.3215 176.942 50.3889 178.431 50.3889H180.052L179.939 44.1712C179.876 40.7512 179.7 37.6238 179.547 37.2215C178.874 35.4506 174.411 34.6839 171.765 35.885ZM188.406 35.4802C188.146 35.5754 187.614 35.9436 187.224 36.2985L186.515 36.9438V36.2582C186.515 35.6306 186.355 35.5729 184.623 35.5729H182.732V45.3452V55.1174H184.623H186.515V52.0679V49.018L187.283 49.7402C189.151 51.4948 192.333 50.6446 193.44 48.095C194.632 45.3505 194.507 39.2898 193.212 37.0986C192.364 35.6621 190.045 34.8812 188.406 35.4802ZM213.467 35.8282C211.843 36.5889 211.4 37.1497 211.19 38.7129L211.02 39.9862H212.581C214.039 39.9862 214.171 39.9187 214.593 38.9616C214.97 38.1045 215.236 37.9211 216.224 37.8394C217.223 37.7568 217.459 37.8618 217.761 38.5254C217.957 38.9566 218.029 39.6643 217.92 40.0984C217.759 40.7383 217.38 40.9826 215.91 41.3924C211.366 42.659 210.658 43.3116 210.641 46.2502C210.628 48.3664 211.184 49.6213 212.416 50.2581C214.06 51.1086 216.784 50.539 217.549 49.1847C217.808 48.7261 217.873 48.761 218.035 49.4432C218.202 50.149 218.401 50.2411 219.942 50.3237L221.663 50.4163L221.561 44.3342C221.452 37.8413 221.313 37.1733 219.841 36.0839C218.591 35.1586 215.188 35.0222 213.467 35.8282ZM105.816 41.3259C105.817 44.4899 105.968 47.6183 106.151 48.2775C106.801 50.6194 109.952 51.4733 112.232 49.9255C113.321 49.1872 113.38 49.1791 113.38 49.7679C113.38 50.3167 113.6 50.3889 115.271 50.3889H117.163V42.9809V35.5729H115.292H113.421L113.321 41.1179C113.225 46.5084 113.202 46.6799 112.478 47.2649C111.589 47.984 111.18 48.0143 110.367 47.4203C109.807 47.0115 109.746 46.4882 109.656 41.2733L109.557 35.5729H107.686H105.814L105.816 41.3259ZM196.602 42.9809V50.3889H198.336H200.07V42.9809V35.5729H198.336H196.602V42.9809ZM147.245 38.5897C147.983 39.3283 148.129 40.2815 148.008 43.5899C147.914 46.1569 147.8 46.6877 147.218 47.2697C146.731 47.7564 146.316 47.8945 145.76 47.7548C144.562 47.4541 144.198 46.1373 144.322 42.5601C144.41 40.0158 144.544 39.2945 145.031 38.7577C145.745 37.9702 146.563 37.9081 147.245 38.5897ZM189.857 38.8876C190.256 39.4966 190.376 40.4464 190.376 42.9809C190.376 46.6272 189.933 47.8711 188.635 47.8623C186.992 47.851 186.515 46.7511 186.515 42.9809C186.515 39.2107 186.992 38.1108 188.635 38.0995C189.041 38.0966 189.556 38.4292 189.857 38.8876ZM175.952 47.1269C175.538 47.7577 175.227 47.8847 174.286 47.8062C173.365 47.7293 173.07 47.5414 172.841 46.8867C172.309 45.3647 172.825 44.4234 174.626 43.6265L176.269 42.8999L176.365 44.6255C176.43 45.8152 176.302 46.5916 175.952 47.1269ZM217.658 46.8438C217.339 47.5124 216.989 47.7309 216.117 47.8043C214.695 47.9238 214.183 47.3444 214.314 45.7613C214.406 44.646 214.541 44.4946 216.147 43.711L217.88 42.8649L217.976 44.4215C218.028 45.278 217.885 46.3678 217.658 46.8438Z" fill="#00071A"/>
</svg>
