<svg width="117" height="20" viewBox="0 0 117 20" fill="none" xmlns="http://www.w3.org/2000/svg">
<path d="M25.0896 15.4395H30.8792C33.8267 15.4395 35.6162 13.916 35.6162 11.4355V11.416C35.6162 9.56055 34.2956 8.17383 32.3529 7.99805V7.93945C33.8267 7.73438 34.9463 6.38672 34.9463 4.88281V4.86328C34.9463 2.72461 33.329 1.34766 30.8218 1.34766H25.0896V15.4395ZM30.1998 3.31055C31.6639 3.31055 32.506 3.99414 32.506 5.20508V5.22461C32.506 6.52344 31.5395 7.26562 29.817 7.26562H27.5586V3.31055H30.1998ZM30.2093 9.0918C32.1041 9.0918 33.0994 9.84375 33.0994 11.2695V11.2891C33.0994 12.7246 32.1233 13.4766 30.3146 13.4766H27.5586V9.0918H30.2093Z" fill="#00071A"/>
<path d="M37.1377 15.4395H39.5206V9.375C39.5206 7.91992 40.334 7.03125 41.6833 7.03125C42.0852 7.03125 42.4489 7.08984 42.6498 7.16797V4.9707C42.468 4.92188 42.1905 4.87305 41.8938 4.87305C40.6976 4.87305 39.8077 5.60547 39.5014 6.81641H39.4536V5.08789H37.1377V15.4395Z" fill="#00071A"/>
<path d="M45.1379 3.60352C45.8844 3.60352 46.4585 2.99805 46.4585 2.27539C46.4585 1.5332 45.8844 0.9375 45.1379 0.9375C44.3915 0.9375 43.8078 1.5332 43.8078 2.27539C43.8078 2.99805 44.3915 3.60352 45.1379 3.60352ZM43.9417 15.4395H46.3246V5.08789H43.9417V15.4395Z" fill="#00071A"/>
<path d="M52.1238 15.6445C53.5879 15.6445 54.7075 14.9023 55.2817 13.6816H55.3391V15.4395H57.722V1.34766H55.3391V6.86523H55.2817C54.7075 5.625 53.5496 4.87305 52.1142 4.87305C49.5687 4.87305 47.9323 6.91406 47.9323 10.2539V10.2637C47.9323 13.5938 49.5591 15.6445 52.1238 15.6445ZM52.8415 13.5938C51.3103 13.5938 50.3629 12.3242 50.3629 10.2637V10.2539C50.3629 8.19336 51.3199 6.92383 52.8415 6.92383C54.3056 6.92383 55.3391 8.23242 55.3391 10.2539V10.2637C55.3391 12.2949 54.3152 13.5938 52.8415 13.5938Z" fill="#00071A"/>
<path d="M64.2963 19.0625C67.2342 19.0625 69.0811 17.4902 69.0811 15.1465V5.08789H66.6983V6.8457H66.6409C66.0667 5.6543 64.9566 4.87305 63.5212 4.87305C60.9565 4.87305 59.301 6.88477 59.301 10.1562V10.166C59.301 13.3887 60.9374 15.3809 63.4829 15.3809C64.9375 15.3809 66.0858 14.6777 66.6504 13.5742H66.6983V15.0684C66.6983 16.3867 65.8466 17.2266 64.2963 17.2266C63.0522 17.2266 62.2388 16.7773 61.9805 16.1816L61.9517 16.1035H59.6072L59.6263 16.1914C59.9134 17.8125 61.6072 19.0625 64.2963 19.0625ZM64.2293 13.5059C62.6982 13.5059 61.7316 12.2461 61.7316 10.2051V10.1953C61.7316 8.18359 62.6982 6.92383 64.2293 6.92383C65.703 6.92383 66.7078 8.20312 66.7078 10.2051V10.2148C66.7078 12.2266 65.7126 13.5059 64.2293 13.5059Z" fill="#00071A"/>
<path d="M75.4927 15.6445C78.1435 15.6445 79.6364 14.043 79.9522 12.4512L79.9809 12.3438H77.7512L77.732 12.4121C77.5024 13.1055 76.7272 13.75 75.5406 13.75C73.9903 13.75 73.0142 12.6758 72.9759 10.8594H80.0766V10.0781C80.0766 6.95312 78.2775 4.87305 75.3779 4.87305C72.4783 4.87305 70.6122 7.02148 70.6122 10.2832V10.293C70.6122 13.584 72.4496 15.6445 75.4927 15.6445ZM75.4066 6.77734C76.6698 6.77734 77.5885 7.59766 77.7607 9.23828H73.0046C73.196 7.64648 74.1434 6.77734 75.4066 6.77734Z" fill="#00071A"/>
<path d="M85.5791 15.6445C88.0672 15.6445 89.8376 14.3359 89.8376 12.3828V12.373C89.8376 10.8691 89.0242 10.0293 86.9284 9.55078L85.2346 9.16992C84.182 8.92578 83.7896 8.53516 83.7896 7.93945V7.92969C83.7896 7.16797 84.4499 6.66992 85.5026 6.66992C86.6126 6.66992 87.2634 7.27539 87.3686 8.10547L87.3782 8.18359H89.5984L89.5888 8.07617C89.5027 6.28906 88.0289 4.87305 85.5026 4.87305C83.0527 4.87305 81.4355 6.15234 81.4355 8.04688V8.05664C81.4355 9.58984 82.4116 10.5566 84.3542 10.9961L86.0385 11.377C87.0911 11.6211 87.4452 11.9727 87.4452 12.5977V12.6074C87.4452 13.3691 86.7466 13.8477 85.5887 13.8477C84.3829 13.8477 83.7226 13.3203 83.5408 12.4316L83.5216 12.3438H81.1771L81.1867 12.4316C81.3972 14.3555 82.9188 15.6445 85.5791 15.6445Z" fill="#00071A"/>
<path d="M91.3592 18.8574H93.742V13.6914H93.7898C94.364 14.9023 95.5219 15.6445 96.967 15.6445C99.5125 15.6445 101.139 13.5938 101.139 10.2734V10.2637C101.139 6.92383 99.5125 4.87305 96.9382 4.87305C95.4837 4.87305 94.3736 5.63477 93.7898 6.875H93.742V5.08789H91.3592V18.8574ZM96.2301 13.5938C94.7564 13.5938 93.7229 12.2949 93.7229 10.2734V10.2637C93.7229 8.23242 94.7564 6.92383 96.2301 6.92383C97.7517 6.92383 98.7086 8.19336 98.7086 10.2637V10.2734C98.7086 12.3145 97.7517 13.5938 96.2301 13.5938Z" fill="#00071A"/>
<path d="M102.737 15.4395H105.12V1.34766H102.737V15.4395Z" fill="#00071A"/>
<path d="M108.412 3.60352C109.159 3.60352 109.733 2.99805 109.733 2.27539C109.733 1.5332 109.159 0.9375 108.412 0.9375C107.666 0.9375 107.082 1.5332 107.082 2.27539C107.082 2.99805 107.666 3.60352 108.412 3.60352ZM107.216 15.4395H109.599V5.08789H107.216V15.4395Z" fill="#00071A"/>
<path d="M115.398 15.6445C115.877 15.6445 116.298 15.5957 116.575 15.5566V13.7305C116.412 13.7402 116.231 13.7695 116.001 13.7695C115.13 13.7695 114.69 13.4473 114.69 12.4316V6.96289H116.575V5.08789H114.69V2.46094H112.269V5.08789H110.833V6.96289H112.269V12.6367C112.269 14.7656 113.274 15.6445 115.398 15.6445Z" fill="#00071A"/>
<path fill-rule="evenodd" clip-rule="evenodd" d="M11.6213 6.83852C11.754 6.96983 11.754 7.18272 11.6213 7.31403L3.72941 15.1247C3.6657 15.1878 3.57929 15.2232 3.48919 15.2232H0.34041C0.0377955 15.2232 -0.113803 14.8611 0.100109 14.6493L9.56341 5.27745C9.69607 5.14607 9.91123 5.14603 10.0439 5.27737L11.6213 6.83852Z" fill="#00071A"/>
<path fill-rule="evenodd" clip-rule="evenodd" d="M7.98259 6.8449C7.85094 6.97553 7.85025 7.18676 7.98103 7.31823L15.7447 15.1229C15.8086 15.1871 15.8958 15.2232 15.9868 15.2232H19.2548C19.5573 15.2232 19.709 14.8613 19.4952 14.6494L10.0406 5.27982C9.90787 5.14825 9.69241 5.14831 9.55972 5.27997L7.98259 6.8449Z" fill="#00071A"/>
<path fill-rule="evenodd" clip-rule="evenodd" d="M0.030192 1.27373C0.030192 1.08804 0.182294 0.9375 0.369921 0.9375H19.2588C19.4465 0.9375 19.5986 1.08804 19.5986 1.27373V3.45925C19.5986 3.64494 19.4465 3.79548 19.2588 3.79548H0.369921C0.182294 3.79548 0.030192 3.64494 0.030192 3.45925V1.27373Z" fill="#00071A"/>
</svg>
