<svg width="200" height="32" viewBox="0 0 200 32" fill="none" xmlns="http://www.w3.org/2000/svg">
<path fill-rule="evenodd" clip-rule="evenodd" d="M20.3324 10.6827C20.5645 10.9124 20.5645 11.2849 20.3324 11.5146L6.52488 25.18C6.41342 25.2904 6.26223 25.3523 6.10459 25.3523H0.595572C0.066126 25.3523 -0.199108 24.7189 0.175149 24.3482L16.7319 7.95146C16.964 7.7216 17.3405 7.72155 17.5726 7.95133L20.3324 10.6827Z" fill="#1A1A1A"/>
<path fill-rule="evenodd" clip-rule="evenodd" d="M13.9661 10.6938C13.7358 10.9224 13.7346 11.2919 13.9634 11.522L27.5466 25.1768C27.6583 25.2891 27.8109 25.3523 27.9702 25.3523H33.6877C34.217 25.3523 34.4823 24.7191 34.1082 24.3484L17.5669 7.95562C17.3346 7.72542 16.9576 7.72553 16.7255 7.95588L13.9661 10.6938Z" fill="#1A1A1A"/>
<path fill-rule="evenodd" clip-rule="evenodd" d="M0.0528232 0.946663C0.0528232 0.621774 0.318936 0.358398 0.647204 0.358398H33.6948C34.0231 0.358398 34.2892 0.621773 34.2892 0.946663V4.77038C34.2892 5.09527 34.0231 5.35865 33.6948 5.35865H0.647204C0.318937 5.35865 0.0528232 5.09527 0.0528232 4.77038V0.946663Z" fill="#1A1A1A"/>
<path d="M39 25.3723H49.1294C54.2861 25.3723 57.417 22.7069 57.417 18.3671V18.333C57.417 15.0867 55.1065 12.6605 51.7078 12.353V12.2504C54.2861 11.8916 56.245 9.53382 56.245 6.90262V6.86845C56.245 3.12668 53.4155 0.717599 49.0289 0.717599H39V25.3723ZM47.9406 4.15182C50.5023 4.15182 51.9756 5.34782 51.9756 7.46645V7.50062C51.9756 9.77302 50.2846 11.0715 47.2709 11.0715H43.3196V4.15182H47.9406ZM47.9574 14.2666C51.2724 14.2666 53.0137 15.5822 53.0137 18.0767V18.1108C53.0137 20.6224 51.3059 21.938 48.1415 21.938H43.3196V14.2666H47.9574Z" fill="#1A1A1A"/>
<path d="M60.0791 25.3723H64.2481V14.762C64.2481 12.2163 65.6712 10.6615 68.0319 10.6615C68.7351 10.6615 69.3714 10.764 69.723 10.9007V7.05639C69.4048 6.97096 68.9193 6.88554 68.4003 6.88554C66.3074 6.88554 64.7504 8.16696 64.2146 10.2856H64.1309V7.26142H60.0791V25.3723Z" fill="#1A1A1A"/>
<path d="M74.0761 4.66439C75.382 4.66439 76.3866 3.60508 76.3866 2.34074C76.3866 1.04223 75.382 0 74.0761 0C72.7701 0 71.7488 1.04223 71.7488 2.34074C71.7488 3.60508 72.7701 4.66439 74.0761 4.66439ZM71.9832 25.3723H76.1522V7.26142H71.9832V25.3723Z" fill="#1A1A1A"/>
<path d="M86.2983 25.7311C88.8599 25.7311 90.8188 24.4325 91.8234 22.2968H91.9239V25.3723H96.0928V0.717599H91.9239V10.371H91.8234C90.8188 8.20113 88.793 6.88554 86.2815 6.88554C81.828 6.88554 78.965 10.4564 78.965 16.2998V16.3168C78.965 22.1431 81.8112 25.7311 86.2983 25.7311ZM87.554 22.1431C84.8752 22.1431 83.2176 19.9219 83.2176 16.3168V16.2998C83.2176 12.6947 84.8919 10.4735 87.554 10.4735C90.1156 10.4735 91.9239 12.763 91.9239 16.2998V16.3168C91.9239 19.8707 90.1324 22.1431 87.554 22.1431Z" fill="#1A1A1A"/>
<path d="M107.595 31.7111C112.735 31.7111 115.966 28.9603 115.966 24.8597V7.26142H111.798V10.3368H111.697C110.692 8.25239 108.75 6.88554 106.239 6.88554C101.752 6.88554 98.8554 10.4052 98.8554 16.1289V16.146C98.8554 21.7843 101.718 25.2697 106.172 25.2697C108.717 25.2697 110.726 24.0396 111.714 22.1089H111.798V24.723C111.798 27.0296 110.307 28.4989 107.595 28.4989C105.419 28.4989 103.995 27.713 103.543 26.6708L103.493 26.5341H99.3911L99.4246 26.6879C99.9269 29.5241 102.89 31.7111 107.595 31.7111ZM107.478 21.9893C104.799 21.9893 103.108 19.7852 103.108 16.2143V16.1972C103.108 12.6776 104.799 10.4735 107.478 10.4735C110.056 10.4735 111.814 12.7118 111.814 16.2143V16.2314C111.814 19.7511 110.073 21.9893 107.478 21.9893Z" fill="#1A1A1A"/>
<path d="M127.184 25.7311C131.822 25.7311 134.434 22.929 134.986 20.144L135.036 19.9561H131.135L131.102 20.0757C130.7 21.2888 129.344 22.4164 127.268 22.4164C124.555 22.4164 122.848 20.537 122.781 17.3591H135.204V15.9922C135.204 10.5248 132.056 6.88554 126.983 6.88554C121.91 6.88554 118.645 10.6444 118.645 16.351V16.3681C118.645 22.126 121.86 25.7311 127.184 25.7311ZM127.033 10.2172C129.243 10.2172 130.851 11.6524 131.152 14.5228H122.831C123.166 11.7379 124.823 10.2172 127.033 10.2172Z" fill="#1A1A1A"/>
<path d="M144.831 25.7311C149.184 25.7311 152.281 23.4416 152.281 20.0244V20.0073C152.281 17.3762 150.858 15.9068 147.192 15.0696L144.228 14.4032C142.387 13.9761 141.7 13.2927 141.7 12.2504V12.2334C141.7 10.9007 142.855 10.0293 144.697 10.0293C146.639 10.0293 147.778 11.0886 147.962 12.5409L147.979 12.6776H151.863L151.846 12.4896C151.695 9.36296 149.117 6.88554 144.697 6.88554C140.411 6.88554 137.581 9.12376 137.581 12.4384V12.4555C137.581 15.1379 139.289 16.8294 142.688 17.5983L145.635 18.2646C147.476 18.6918 148.096 19.3068 148.096 20.4003V20.4174C148.096 21.7501 146.874 22.5873 144.848 22.5873C142.738 22.5873 141.583 21.6647 141.265 20.1099L141.231 19.9561H137.129L137.146 20.1099C137.514 23.4757 140.176 25.7311 144.831 25.7311Z" fill="#1A1A1A"/>
<path d="M154.944 31.3523H159.113V22.3139H159.196C160.201 24.4325 162.227 25.7311 164.755 25.7311C169.208 25.7311 172.055 22.1431 172.055 16.3339V16.3168C172.055 10.4735 169.208 6.88554 164.705 6.88554C162.16 6.88554 160.218 8.21822 159.196 10.3881H159.113V7.26142H154.944V31.3523ZM163.466 22.1431C160.887 22.1431 159.079 19.8707 159.079 16.3339V16.3168C159.079 12.763 160.887 10.4735 163.466 10.4735C166.128 10.4735 167.802 12.6947 167.802 16.3168V16.3339C167.802 19.9048 166.128 22.1431 163.466 22.1431Z" fill="#1A1A1A"/>
<path d="M174.851 25.3723H179.02V0.717599H174.851V25.3723Z" fill="#1A1A1A"/>
<path d="M184.779 4.66439C186.085 4.66439 187.09 3.60508 187.09 2.34074C187.09 1.04223 186.085 0 184.779 0C183.473 0 182.452 1.04223 182.452 2.34074C182.452 3.60508 183.473 4.66439 184.779 4.66439ZM182.686 25.3723H186.855V7.26142H182.686V25.3723Z" fill="#1A1A1A"/>
<path d="M197.001 25.7311C197.839 25.7311 198.575 25.6456 199.061 25.5773V22.3823C198.776 22.3993 198.458 22.4506 198.056 22.4506C196.533 22.4506 195.762 21.8868 195.762 20.1099V10.5419H199.061V7.26142H195.762V2.66537H191.527V7.26142H189.015V10.5419H191.527V20.4687C191.527 24.1933 193.285 25.7311 197.001 25.7311Z" fill="#1A1A1A"/>
</svg>
