<svg width="144" height="80" viewBox="0 0 144 80" fill="none" xmlns="http://www.w3.org/2000/svg">
<path fill-rule="evenodd" clip-rule="evenodd" d="M0.52832 40V80H71.7709H143.014V40V0H71.7709H0.52832V40ZM139.7 40V76.6864H71.7709H3.84193V40V3.31361H71.7709H139.7V40ZM59.2119 12.426C57.45 13.316 56.9596 13.8807 56.232 15.858C55.5087 17.823 55.3875 19.3103 55.5186 24.6154C55.6587 30.2935 55.797 31.2 56.7603 32.7493C57.5044 33.946 58.5042 34.7446 59.9499 35.2966C61.2848 35.8064 62.8052 36.0161 64.1032 35.8698C65.2294 35.743 66.7655 35.342 67.5167 34.9794C68.268 34.6163 69.2526 33.6805 69.7042 32.8994C70.1558 32.1183 70.5927 30.6272 70.6746 29.5858L70.8242 27.6923L68.4426 27.5527L66.0616 27.4135L65.5016 29.5072C65.1934 30.6594 64.5842 31.7387 64.1473 31.9063C63.7108 32.0738 62.9899 32.0951 62.5454 31.9541C62.1009 31.813 61.4916 31.1593 61.192 30.5013C60.8824 29.822 60.6467 26.9728 60.6467 23.9138C60.6467 20.9491 60.8729 17.9281 61.1499 17.2C61.4263 16.4724 61.9054 15.7164 62.2149 15.52C62.5241 15.3231 63.0277 15.1593 63.3349 15.155C63.6417 15.1512 64.2273 15.4826 64.6367 15.8916C65.0457 16.3011 65.3804 17.2596 65.3804 18.0218C65.3804 19.387 65.4206 19.4083 67.9839 19.4083H70.5875V17.8622C70.5875 17.0121 70.1984 15.591 69.7226 14.7039C69.2469 13.8168 68.1316 12.7015 67.2445 12.2258C66.3574 11.7501 64.6618 11.3609 63.476 11.3609C62.1813 11.3609 60.4786 11.786 59.2119 12.426ZM11.4159 23.6298V35.503H14.0194H16.623V30.7692V26.0355H18.1851C19.0443 26.0355 20.0029 26.2911 20.3153 26.6035C20.6277 26.916 20.8833 28.3806 20.8833 29.858C20.8833 31.3354 21.0164 33.2099 21.1792 34.0237C21.4675 35.4656 21.5413 35.503 24.0805 35.503H26.686L26.3522 31.1243C26.1605 28.6035 25.7207 26.2826 25.317 25.6549C24.9312 25.0551 24.152 24.3929 23.5854 24.1837C22.5776 23.8106 22.5757 23.7965 23.5106 23.4996C24.036 23.333 24.8313 22.5775 25.2781 21.8211C25.7842 20.9638 26.0904 19.4504 26.0904 17.804C26.0904 15.5555 25.8855 14.933 24.7101 13.617L23.3302 12.071L17.3728 11.9138L11.4159 11.7572V23.6298ZM32.7186 21.1834C32.7191 29.1489 32.8417 30.773 33.547 32.1557C34.0019 33.0485 34.9757 34.2201 35.7108 34.7593C36.7948 35.5541 37.7506 35.7396 40.765 35.7396C43.7794 35.7396 44.7352 35.5541 45.8192 34.7593C46.5544 34.2201 47.5281 33.0485 47.983 32.1557C48.6883 30.773 48.8109 29.1489 48.8114 21.1834L48.8123 11.8343H46.2088H43.6052V21.2284C43.6052 29.7283 43.5229 30.6973 42.7394 31.4059C42.2632 31.8367 41.317 32.1894 40.6362 32.1894C39.894 32.1894 39.1035 31.7685 38.6618 31.137C38.0564 30.2736 37.9248 28.453 37.9248 20.9595V11.8343H35.3212H32.7177L32.7186 21.1834ZM76.268 23.645V35.503H79.0945H81.9205L81.8164 30.2954C81.7586 27.431 81.823 25.0878 81.9593 25.0883C82.0952 25.0888 83.3023 27.432 84.6414 30.2959L87.076 35.503H89.956C91.5399 35.503 92.836 35.3927 92.836 35.2577C92.836 35.1233 91.4514 32.3815 89.7591 29.1654C88.0668 25.9489 86.6845 23.0239 86.6874 22.6646C86.6907 22.3058 88.0753 19.8144 89.7643 17.129C91.4538 14.4435 92.836 12.1538 92.836 12.0402C92.836 11.9271 91.582 11.8343 90.0493 11.8343H87.2625L84.6244 16.435L81.9868 21.0362L81.849 16.5534L81.7117 12.071L78.9899 11.929L76.268 11.787V23.645ZM98.0431 23.6686V35.503H104.67H111.298V33.6095V31.716H107.274H103.25V28.4024V25.0888H106.801H110.351V23.1953V21.3018H106.801H103.25V18.4805V15.6596L107.156 15.5219L111.061 15.3846L111.208 13.6095L111.355 11.8343H104.699H98.0431V23.6686ZM117.446 11.9527C117.443 12.0175 117.39 17.3434 117.328 23.787L117.215 35.5034L119.925 35.503H122.636L122.578 30.8876L122.52 26.2722L123.95 26.1283C124.804 26.0421 125.69 26.2944 126.15 26.7536C126.71 27.3141 126.919 28.4033 126.919 30.7645C126.919 32.5467 127.048 34.3422 127.206 34.7541C127.418 35.307 128.152 35.503 130.01 35.503H132.526L132.285 31.8343C132.152 29.8168 131.827 27.4589 131.564 26.5955C131.29 25.6975 130.599 24.8043 129.95 24.5089L128.816 23.992L129.811 23.2951C130.358 22.9117 131.103 21.8873 131.466 21.0182C131.829 20.1496 132.126 18.7858 132.126 17.9882C132.126 17.1905 131.814 15.7912 131.433 14.8791C130.962 13.7515 130.209 12.9983 129.081 12.5273C127.981 12.0677 125.743 11.8343 122.437 11.8343C119.695 11.8343 117.449 11.8878 117.446 11.9527ZM19.9678 16.1112C20.6533 16.4781 20.8833 17.1086 20.8833 18.6201C20.8833 19.7307 20.6277 20.8947 20.3153 21.2071C20.0029 21.5195 19.0443 21.7751 18.1851 21.7751H16.623V18.6982C16.623 15.7108 16.6585 15.6213 17.8377 15.6213C18.5056 15.6213 19.4642 15.8419 19.9678 16.1112ZM126.053 16.4047C126.543 16.8483 126.919 17.8357 126.919 18.6812C126.919 19.502 126.653 20.5198 126.327 20.942C126.002 21.3643 125.416 21.7496 125.025 21.7983C124.635 21.8476 123.942 21.8622 123.487 21.831C122.789 21.7841 122.658 21.2918 122.658 18.6982C122.658 15.6791 122.682 15.6213 123.923 15.6213C124.618 15.6213 125.577 15.974 126.053 16.4047ZM31.7709 57.0414V69.1124H34.3745H36.978V64.4398V59.7671L40.3191 59.4381C43.058 59.1683 43.9328 58.8653 45.1712 57.7591C46.6471 56.4402 46.6822 56.3157 46.6822 52.3574C46.6822 48.6106 46.588 48.2116 45.4344 47.0575C44.7096 46.3333 43.3203 45.6426 42.1207 45.4106C40.9846 45.191 38.1913 45.0026 35.9129 44.9912L31.7709 44.9704V57.0414ZM57.5731 45.5621C57.4609 45.8878 56.0975 50.7337 54.5435 56.3314C52.9894 61.929 51.5702 67.1068 51.3903 67.8376L51.0632 69.1659L53.6043 69.0211L56.1454 68.8757L56.8076 66.3905L57.4699 63.9053H60.73C62.9165 63.9053 64.0554 64.1004 64.1884 64.497C64.2978 64.8227 64.6187 65.9943 64.9018 67.1006L65.4168 69.1124H68.0024C69.5243 69.1124 70.5875 68.9041 70.5875 68.6054C70.5875 68.3266 69.5101 64.1193 68.1932 59.2563C66.8762 54.3934 65.4921 49.3188 65.1177 47.9801C64.7432 46.6414 64.0994 45.4168 63.6867 45.2582C63.2739 45.1001 61.7752 44.9704 60.3565 44.9704C58.7167 44.9704 57.7023 45.1863 57.5731 45.5621ZM76.1103 45.2862C75.9366 45.4594 75.7946 50.8914 75.7946 57.3572V69.1124H78.3981H81.0017V64.0828V59.0533L82.4952 59.352C83.3165 59.5162 84.2751 59.8883 84.6254 60.1789C85.04 60.5236 85.2644 61.8007 85.2687 63.8447C85.272 65.5707 85.4036 67.4613 85.5603 68.0473C85.8121 68.9865 86.1506 69.1124 88.4228 69.1124H90.9998L90.7125 65.6805C90.5548 63.7927 90.321 61.5654 90.1932 60.7304C90.0592 59.857 89.4372 58.8009 88.7281 58.2433L87.4954 57.2734L88.7267 56.1325C89.4036 55.5053 90.099 54.4284 90.2717 53.7401C90.4445 53.0514 90.4762 51.5172 90.3428 50.3304C90.1799 48.8876 89.708 47.7813 88.9179 46.9912C88.2571 46.3299 86.827 45.6341 85.671 45.4106C84.5349 45.191 81.9901 45.0026 80.0157 44.9912C78.0412 44.9799 76.2836 45.1124 76.1103 45.2862ZM96.9387 45.2862C96.765 45.4594 96.623 50.8914 96.623 57.3572V69.1124H99.2265H101.83L101.863 63.5503L101.896 57.9882L104.585 63.5233L107.274 69.058L110.236 69.0854L113.197 69.1124L109.872 62.4738L106.546 55.8353L109.632 50.9193C111.329 48.2154 112.718 45.7709 112.718 45.4869C112.718 45.1773 111.689 44.9704 110.152 44.9704H107.586L104.827 49.7259L102.067 54.4814L101.932 49.7259L101.797 44.9704H99.5257C98.2765 44.9704 97.112 45.1124 96.9387 45.2862ZM41.1437 49.7988C41.4561 50.1112 41.7118 51.1356 41.7118 52.0753C41.7118 53.0149 41.4457 54.1283 41.12 54.5501C40.7948 54.9714 39.9958 55.3553 39.3449 55.4026C38.694 55.4504 37.8954 55.466 37.5697 55.4372C37.1626 55.4007 36.978 54.4256 36.978 52.3077V49.2308H38.7768C39.7662 49.2308 40.8313 49.4864 41.1437 49.7988ZM84.7721 50.1463C85.0415 50.6499 85.262 51.6999 85.262 52.4795C85.262 53.2592 84.9274 54.2315 84.5184 54.6409C84.1089 55.0499 83.1503 55.3846 82.3882 55.3846H81.0017V52.3077V49.2308H82.6419C83.779 49.2308 84.4322 49.5115 84.7721 50.1463ZM62.7678 59.0533C63.0121 60.0398 62.8734 60.1183 60.8923 60.1183C59.3473 60.1183 58.7532 59.9295 58.7532 59.4376C58.7532 59.0632 59.0803 57.306 59.4803 55.5323C59.8803 53.7586 60.338 51.9882 60.4975 51.5976C60.6613 51.1962 61.1607 52.4317 61.6455 54.4379C62.1174 56.3905 62.6225 58.4672 62.7678 59.0533Z" fill="#00071A"/>
</svg>
