<svg width="206" height="40" viewBox="0 0 206 40" fill="none" xmlns="http://www.w3.org/2000/svg">
<path fill-rule="evenodd" clip-rule="evenodd" d="M8.63476 0.0911111C8.27798 0.249333 7.93732 0.592556 4.86565 3.88889C3.12876 5.75278 1.4172 7.586 1.06209 7.96256C0.335538 8.73311 0.220983 9.19289 0.642871 9.64567L0.869427 9.88889H18.8151C34.2128 9.88889 36.8045 9.86622 37.07 9.729C37.3447 9.58689 44.323 2.20933 44.9465 1.40167C45.2684 0.984889 45.2601 0.611444 44.9213 0.272778L44.6487 0L26.7269 0.00777778C16.87 0.0121111 8.72854 0.0495556 8.63476 0.0911111ZM63.6123 0.555111C62.766 0.809889 61.7721 1.78044 61.4802 2.63711C61.3454 3.03256 61.3054 3.62544 61.3063 5.21422C61.3073 7.19144 61.3192 7.30333 61.5908 7.88889C61.9428 8.64778 62.4184 9.15456 63.1385 9.53767L63.6941 9.83333L68.6663 9.86545L73.6385 9.89756V11.3377V12.7778H67.4719H61.3052V14.4478V16.1179L67.8885 16.0867C74.3861 16.056 74.4788 16.0524 74.9963 15.8133C75.733 15.473 76.4641 14.6821 76.7511 13.9152C76.9684 13.3342 76.9852 13.105 76.9522 11.1684C76.9174 9.12689 76.9062 9.03656 76.6193 8.493C76.2645 7.82056 75.5787 7.17422 74.8743 6.84856C74.3782 6.61911 74.1941 6.61 69.4441 6.577L64.5274 6.54289V5.10478V3.66667H70.7496H76.9719V2.05556V0.444444L70.4441 0.454C66.8539 0.459222 63.7795 0.504778 63.6123 0.555111ZM81.8913 0.628222C81.1849 0.878333 80.3919 1.65244 80.041 2.43411L79.7414 3.10156L79.7733 8.41189C79.805 13.6807 79.8072 13.7259 80.0559 14.1913C80.4491 14.9271 80.934 15.4094 81.6183 15.7456L82.2497 16.0556H87.9163H93.583L94.13 15.7863C94.8263 15.4437 95.4155 14.8544 95.7582 14.1581L96.0274 13.6111L96.0593 8.43189C96.0901 3.44456 96.0828 3.23011 95.864 2.64522C95.5459 1.79511 94.9521 1.14489 94.145 0.763111L93.4719 0.444667L87.9163 0.453333C83.2838 0.460556 82.2828 0.489556 81.8913 0.628222ZM98.8632 7.41667C98.8655 13.9577 98.8783 14.4163 99.0708 14.8333C99.319 15.3712 99.6708 15.7098 100.22 15.9391C100.576 16.088 101.549 16.1111 107.471 16.1111H114.311L114.28 14.4722L114.25 12.8333L108.222 12.8046L102.194 12.7759V6.61011V0.444444H100.527H98.8608L98.8632 7.41667ZM118.552 0.686C118.291 0.812778 117.902 1.12067 117.688 1.37011C116.972 2.20744 116.972 2.205 116.972 9.52022V16.1111H118.639H120.305V13.5556V11H125.194H130.083V13.5556V16.1111H131.754H133.424L133.393 9.30556L133.361 2.5L133.066 1.94444C132.721 1.29422 132.425 1.00178 131.782 0.679222C131.322 0.448556 131.207 0.444556 125.171 0.45C119.187 0.455333 119.015 0.461444 118.552 0.686ZM137.12 0.72C136.8 0.914778 136.57 1.17811 136.37 1.57789L136.083 2.15478V9.13289V16.1111H137.75H139.416V9.88889V3.66667H139.728C140.026 3.66667 140.172 3.91711 143.089 9.41222C144.766 12.5723 146.252 15.2938 146.392 15.4599C146.856 16.0137 147.403 16.1314 149.323 16.0914C150.987 16.0568 151.06 16.0453 151.506 15.7499C151.76 15.5818 152.068 15.2462 152.192 15.0043C152.41 14.5767 152.416 14.3681 152.416 7.50444V0.444444H150.805H149.194V6.61844V12.7926L148.895 12.7573C148.622 12.7252 148.329 12.2216 145.523 6.94811C143.025 2.25333 142.373 1.111 142.035 0.837L141.619 0.5L139.601 0.469444C137.613 0.439444 137.576 0.443111 137.12 0.72ZM156.958 0.722333C156.39 1.01811 155.952 1.48322 155.662 2.09678C155.49 2.46133 155.469 3.15244 155.44 9.30556L155.408 16.1111H157.079H158.75V13.5556V11H163.639H168.527V13.5556V16.1111H170.194H171.861V9.52022C171.861 2.20489 171.861 2.20744 171.144 1.36989C170.931 1.12033 170.53 0.810111 170.254 0.680333C169.761 0.448556 169.644 0.444556 163.612 0.449667L157.472 0.454778L156.958 0.722333ZM92.7497 8.22222V12.7778H87.9163H83.083V8.22222V3.66667H87.9163H92.7497V8.22222ZM130.083 5.66667V7.66667H125.194H120.305V5.66667V3.66667H125.194H130.083V5.66667ZM168.527 5.66667V7.66667H163.639H158.75V5.66667V3.66667H163.639H168.527V5.66667ZM0.689094 15.2728C0.507316 15.4544 0.416316 15.6704 0.416316 15.9201C0.416316 16.2591 0.791983 16.6977 4.35998 20.5251C7.09598 23.4601 8.41098 24.7929 8.65432 24.8778C9.15976 25.054 44.2944 25.0508 44.6813 24.8744C45.088 24.6892 45.2688 24.1811 45.0718 23.7769C44.8115 23.2428 37.5594 15.528 37.0561 15.25L36.6035 15H18.7826H0.96176L0.689094 15.2728ZM61.3052 24.0034C61.3052 24.0664 62.4178 27.3538 63.7774 31.3086C66.0825 38.0129 66.2774 38.5268 66.6604 38.9103C67.2279 39.4784 67.6985 39.5777 69.6239 39.5356C71.4814 39.4949 71.918 39.3582 72.3648 38.6771C72.569 38.3657 77.5274 24.2253 77.5274 23.9542C77.5274 23.9183 76.7573 23.8889 75.8161 23.8889H74.1048L73.976 24.25C73.9052 24.4486 73.0031 27.0611 71.9713 30.0556C70.9395 33.05 70.0368 35.6651 69.9652 35.8669C69.8434 36.2099 69.8055 36.2316 69.3829 36.2002L68.9307 36.1667L66.8195 30.0278L64.7084 23.8889H63.0069C61.9123 23.8889 61.3052 23.9298 61.3052 24.0034ZM80.023 24.0278C79.9938 24.1042 79.9829 27.6167 79.9987 31.8333L80.0274 39.5L87.6663 39.5286L95.3052 39.5571V37.8897V36.2222H89.3052H83.3052V34.7778V33.3333H89.3052H95.3052V31.7222V30.1111H89.3052H83.3052V28.6667V27.2222H89.3052H95.3052V25.5556V23.8889H87.6907C81.7013 23.8889 80.0647 23.9186 80.023 24.0278ZM154.134 24.0278C154.105 24.1042 154.094 27.6167 154.11 31.8333L154.139 39.5L155.777 39.5308L157.416 39.5614V36.7232V33.885L160.153 33.9148L162.889 33.9444L164.368 36.7222L165.848 39.5L167.688 39.5304C168.7 39.5472 169.527 39.5281 169.527 39.488C169.527 39.4479 168.827 38.0998 167.972 36.4922C167.116 34.8847 166.416 33.546 166.416 33.5176C166.416 33.489 166.679 33.3173 167 33.136C167.671 32.7563 168.518 31.895 168.84 31.2624C169.549 29.8734 169.61 28.1626 168.998 26.855C168.327 25.4199 166.959 24.3274 165.439 24.0113C164.552 23.827 154.205 23.842 154.134 24.0278ZM171.972 31.7222V39.5556H179.639H187.305V37.8889V36.2222H181.305H175.305V34.7778V33.3333H181.305H187.305V31.7222V30.1111H181.305H175.305V28.6667V27.2222H181.305H187.305V25.5556V23.8889H179.639H171.972V31.7222ZM192.23 24.0946C191.418 24.3758 190.914 24.747 190.474 25.3889C189.919 26.1997 189.837 26.6889 189.88 28.9564C189.914 30.7647 189.94 30.9869 190.168 31.4136C190.571 32.1707 191.091 32.6798 191.804 33.0173L192.472 33.3331L197.333 33.3332L202.194 33.3333V34.7778V36.2222H196.027H189.861V37.8923V39.5623L196.389 39.5312L202.916 39.5L203.545 39.1911C204.27 38.8354 204.894 38.1952 205.234 37.458C205.451 36.9904 205.472 36.7553 205.472 34.8333C205.472 32.7814 205.464 32.7046 205.177 32.0939C204.796 31.2797 204.113 30.6242 203.348 30.3382C202.772 30.1224 202.503 30.1111 197.968 30.1111H193.194V28.6676V27.2241L199.333 27.1953L205.472 27.1667V25.5556V23.9444L199.139 23.9198C193.297 23.8971 192.76 23.9107 192.23 24.0946ZM99.0191 24.2243C98.5185 24.4721 98.1888 24.8599 97.991 25.4332C97.8969 25.7062 97.8608 27.7171 97.8608 32.6832V39.5556H99.5274H101.194V33.3816V27.2074L101.495 27.2427C101.77 27.2748 102.055 27.7647 104.867 33.0526C107.363 37.7432 108.017 38.8904 108.354 39.1637L108.77 39.5L110.676 39.5314C112.841 39.567 113.074 39.5057 113.686 38.7398L114.027 38.3128L114.058 31.1564L114.088 24H112.474H110.861V30.1667V36.3333H110.596C110.36 36.3333 110.004 35.7164 107.308 30.6389C105.645 27.507 104.157 24.8092 104.001 24.644C103.463 24.0734 103.148 24 101.233 24.0001C99.6907 24.0001 99.4157 24.028 99.0191 24.2243ZM116.861 25.6111V27.2222H119.916H122.972V33.3889V39.5556H124.639H126.305V33.3889V27.2222H129.416H132.527V25.6111V24H124.694H116.861V25.6111ZM135.218 29.8056C135.25 35.5838 135.251 35.6141 135.507 36.2489C136.036 37.5587 137.19 38.7134 138.498 39.2414C139.121 39.4929 139.248 39.5009 143.102 39.5318C146.877 39.562 147.099 39.5524 147.757 39.331C149.522 38.7364 150.783 37.3861 151.251 35.5897C151.387 35.0672 151.416 33.9728 151.416 29.4767V24H149.75H148.083L148.08 29.1944L148.077 34.3889L147.822 34.8889C147.521 35.478 146.811 36.0562 146.179 36.2262C145.894 36.3031 144.746 36.3347 143.045 36.3127C140.681 36.2819 140.314 36.253 139.972 36.0707C139.428 35.7808 138.992 35.3533 138.712 34.8333C138.477 34.3988 138.471 34.2737 138.44 29.1944L138.408 24H136.797H135.187L135.218 29.8056ZM165.579 27.6628C166.505 28.5606 166.231 29.9902 165.048 30.4373C164.85 30.5121 163.391 30.5556 161.076 30.5556H157.416V28.8848V27.214L161.299 27.2459L165.182 27.2778L165.579 27.6628ZM8.40276 30.3063C8.24243 30.4128 6.94243 31.7526 5.51387 33.2836C0.233205 38.9422 0.416316 38.7318 0.416316 39.1431C0.416316 39.3901 0.503538 39.5988 0.673427 39.7584L0.930649 40H18.8349C32.3189 40 36.81 39.9678 37.0259 39.8693C37.2737 39.7564 43.7763 32.8982 44.8199 31.6491C45.2514 31.1326 45.288 30.816 44.9638 30.4039L44.7335 30.1111L26.7138 30.1119C9.76432 30.1126 8.67676 30.1241 8.40276 30.3063Z" fill="#00071A"/>
</svg>
