<svg width="118" height="30" viewBox="0 0 118 30" fill="none" xmlns="http://www.w3.org/2000/svg">
<path d="M6.37419 24.5236C5.31252 24.5236 4.47835 24.3178 3.87169 23.9061C3.26502 23.4728 2.83169 22.9311 2.57169 22.2811C2.33335 21.6094 2.21419 20.9269 2.21419 20.2336V10.2886H0.166687V7.03861H2.31169L3.02669 2.26111H6.17919V7.03861H9.13669V10.2886H6.17919V19.8436C6.17919 20.2986 6.29835 20.6561 6.53669 20.9161C6.77502 21.1544 7.13252 21.2736 7.60919 21.2736H9.13669V24.0036C8.92002 24.0903 8.64919 24.1661 8.32419 24.2311C8.02085 24.3178 7.69585 24.3828 7.34919 24.4261C7.00252 24.4911 6.67752 24.5236 6.37419 24.5236Z" fill="#00071A"/>
<path d="M17.5039 24.5236C15.8572 24.5236 14.5139 24.0794 13.4739 23.1911C12.4556 22.2811 11.9464 20.7428 11.9464 18.5761V7.03861H15.9114V17.8611C15.9114 18.4678 15.9764 18.9769 16.1064 19.3886C16.2581 19.7786 16.4639 20.1036 16.7239 20.3636C17.0056 20.6019 17.3414 20.7753 17.7314 20.8836C18.1214 20.9919 18.5547 21.0461 19.0314 21.0461C19.7464 21.0461 20.3856 20.8728 20.9489 20.5261C21.5339 20.1794 21.9889 19.7028 22.3139 19.0961C22.6606 18.4678 22.8339 17.7636 22.8339 16.9836V7.03861H26.7989V24.1336H23.5164L23.1914 21.8586H22.9639C22.5739 22.3786 22.1081 22.8444 21.5664 23.2561C21.0464 23.6461 20.4397 23.9494 19.7464 24.1661C19.0747 24.4044 18.3272 24.5236 17.5039 24.5236Z" fill="#00071A"/>
<path d="M31.0242 24.1336V7.03861H34.3392L34.6642 9.73611H34.8917C35.1083 9.19444 35.3683 8.69611 35.6717 8.24111C35.9967 7.76444 36.4083 7.38528 36.9067 7.10361C37.405 6.80028 38.0117 6.64861 38.7267 6.64861C39.0733 6.64861 39.3875 6.68111 39.6692 6.74611C39.9725 6.81111 40.2 6.87611 40.3517 6.94111V10.6786H39.1492C38.4775 10.6786 37.8817 10.7761 37.3617 10.9711C36.8417 11.1444 36.3975 11.4261 36.0292 11.8161C35.6825 12.2061 35.4225 12.6936 35.2492 13.2786C35.0758 13.8636 34.9892 14.5461 34.9892 15.3261V24.1336H31.0242Z" fill="#00071A"/>
<path d="M42.7991 24.1336V7.03861H46.1141L46.4391 9.31361H46.6666C47.0566 8.79361 47.5116 8.33861 48.0316 7.94861C48.5732 7.53694 49.1799 7.22278 49.8516 7.00611C50.5449 6.76778 51.3032 6.64861 52.1266 6.64861C53.2099 6.64861 54.1632 6.84361 54.9866 7.23361C55.8316 7.62361 56.4924 8.25194 56.9691 9.11861C57.4457 9.98528 57.6841 11.1444 57.6841 12.5961V24.1336H53.6866V13.3111C53.6866 12.7044 53.6107 12.2061 53.4591 11.8161C53.3291 11.4044 53.1232 11.0794 52.8416 10.8411C52.5816 10.5811 52.2566 10.3969 51.8666 10.2886C51.4766 10.1803 51.0432 10.1261 50.5666 10.1261C49.8516 10.1261 49.2016 10.2994 48.6166 10.6461C48.0532 10.9928 47.5982 11.4694 47.2516 12.0761C46.9266 12.6828 46.7641 13.3869 46.7641 14.1886V24.1336H42.7991Z" fill="#00071A"/>
<path d="M61.7786 29.7561V7.03861H65.0611L65.3861 9.31361H65.6136C66.1769 8.42528 66.9136 7.76444 67.8236 7.33111C68.7336 6.87611 69.7411 6.64861 70.8461 6.64861C72.2544 6.64861 73.4569 6.96278 74.4536 7.59111C75.4719 8.21944 76.2519 9.19444 76.7936 10.5161C77.3569 11.8378 77.6386 13.5386 77.6386 15.6186C77.6386 17.6553 77.3569 19.3344 76.7936 20.6561C76.2302 21.9778 75.4502 22.9528 74.4536 23.5811C73.4786 24.2094 72.3519 24.5236 71.0736 24.5236C70.2936 24.5236 69.5786 24.4369 68.9286 24.2636C68.2786 24.0903 67.7044 23.8303 67.2061 23.4836C66.7077 23.1153 66.2852 22.6711 65.9386 22.1511H65.7436V29.7561H61.7786ZM69.6111 21.1111C70.5861 21.1111 71.3552 20.9269 71.9186 20.5586C72.5036 20.1686 72.9152 19.5836 73.1536 18.8036C73.4136 18.0236 73.5436 17.0378 73.5436 15.8461V15.3911C73.5436 14.1778 73.4136 13.1811 73.1536 12.4011C72.9152 11.5994 72.5036 11.0144 71.9186 10.6461C71.3552 10.2561 70.5861 10.0611 69.6111 10.0611C68.7227 10.0611 67.9861 10.2669 67.4011 10.6786C66.8377 11.0903 66.4152 11.6969 66.1336 12.4986C65.8736 13.2786 65.7436 14.2428 65.7436 15.3911V15.7811C65.7436 16.6261 65.8194 17.3844 65.9711 18.0561C66.1227 18.7061 66.3502 19.2586 66.6536 19.7136C66.9786 20.1686 67.3794 20.5153 67.8561 20.7536C68.3544 20.9919 68.9394 21.1111 69.6111 21.1111Z" fill="#00071A"/>
<path d="M117.167 24.1336V0.636108H113.202V24.1336H117.167Z" fill="#00071A"/>
<path d="M83.9192 23.1261C85.1758 23.7544 86.7359 24.0686 88.5992 24.0686C89.8278 24.0686 91.443 23.6682 92.4189 23.3894C92.8451 23.2676 93.0043 22.761 92.7378 22.4069L91.459 20.7083C91.2567 20.4395 90.8837 20.375 90.5706 20.498C90.0263 20.7117 89.3692 20.8186 88.5992 20.8186C87.5592 20.8186 86.7142 20.6236 86.0642 20.2336C85.4359 19.8219 84.97 19.2153 84.6667 18.4136C84.385 17.5903 84.2442 16.5719 84.2442 15.3586V14.9036C84.2442 13.6903 84.385 12.6828 84.6667 11.8811C84.97 11.0578 85.4359 10.4511 86.0642 10.0611C86.7142 9.64944 87.5592 9.44361 88.5992 9.44361C89.6392 9.44361 90.4734 9.64944 91.1017 10.0611C91.7517 10.4511 92.2175 11.0578 92.4992 11.8811C92.8025 12.6828 92.9542 13.7878 92.9542 15.0011C92.9542 17.0378 93.2685 18.7819 93.8969 20.1036C94.5252 21.4253 95.4677 22.4111 96.7244 23.0611C97.981 23.6894 99.541 24.0036 101.404 24.0036C103.289 24.0036 104.849 23.6894 106.084 23.0611C107.341 22.4111 108.284 21.4253 108.912 20.1036C109.54 18.7819 109.854 17.1028 109.854 15.0661C109.854 13.0078 109.54 11.3286 108.912 10.0286C108.284 8.70694 107.341 7.73194 106.084 7.10361C104.849 6.45361 103.289 6.12861 101.404 6.12861C100.181 6.12861 98.5477 6.54864 97.5693 6.83732C97.1482 6.96157 96.9906 7.46257 97.2521 7.81523L98.5675 9.58906C98.745 9.82836 99.0622 9.91686 99.3437 9.81919C99.8694 9.63671 100.732 9.37861 101.404 9.37861C102.444 9.37861 103.279 9.58444 103.907 9.99611C104.557 10.3861 105.023 10.9928 105.304 11.8161C105.608 12.6178 105.759 13.6253 105.759 14.8386V15.2936C105.759 16.5069 105.608 17.5253 105.304 18.3486C105.023 19.1503 104.557 19.7569 103.907 20.1686C103.279 20.5586 102.444 20.7536 101.404 20.7536C100.364 20.7536 99.5194 20.5586 98.8694 20.1686C98.241 19.7569 97.7752 19.1503 97.4719 18.3486C97.1902 17.5253 97.0483 16.4225 97.0483 15.2092C97.0483 13.1509 96.735 11.3936 96.1067 10.0936C95.4783 8.77194 94.5359 7.79694 93.2792 7.16861C92.0442 6.51861 90.4842 6.19361 88.5992 6.19361C86.7359 6.19361 85.1758 6.51861 83.9192 7.16861C82.6625 7.79694 81.72 8.77194 81.0917 10.0936C80.4634 11.3936 80.1492 13.0728 80.1492 15.1311C80.1492 17.1678 80.4634 18.8469 81.0917 20.1686C81.72 21.4903 82.6625 22.4761 83.9192 23.1261Z" fill="#00071A"/>
</svg>
