<svg width="125" height="30" viewBox="0 0 125 30" fill="none" xmlns="http://www.w3.org/2000/svg">
<g clip-path="url(#clip0_7_2)">
<path d="M120.61 4.46997C123.02 4.46997 124.99 6.43997 124.99 8.84997C124.99 11.26 123.02 13.23 120.61 13.23C118.2 13.23 116.23 11.26 116.23 8.84997C116.23 6.43997 118.2 4.46997 120.61 4.46997V4.46997ZM119.89 11.31H118.63V6.38997H121.33C122.35 6.38997 123.01 7.08997 123.01 7.98997C123.01 8.86997 122.4 9.50997 121.45 9.56997L123.08 11.2C123.67 10.6 124.03 9.75997 124.03 8.84997C124.03 6.96997 122.49 5.42997 120.61 5.42997C118.73 5.42997 117.19 6.96997 117.19 8.84997C117.19 10.73 118.73 12.27 120.61 12.27C121.52 12.27 122.36 11.91 122.98 11.31H121.61L120 9.56997H119.88V11.31H119.89ZM121.15 8.60997C121.57 8.60997 121.75 8.36997 121.75 8.00997C121.75 7.64997 121.57 7.40997 121.15 7.40997H119.89V8.60997H121.15Z" fill="black"/>
<path d="M0 0H6.2V9.9C7.71 8.23 9.83 6.97 12.93 6.97C17.98 6.97 21 9.82 21.29 15C22.55 10.11 26.71 6.97 32.54 6.97C38.33 6.97 42.49 10.07 43.75 14.92V7.58H49.95V9.98C51.25 8.19 53.33 6.96 56.15 6.96C59 6.96 61.24 8.26 62.47 10.3C63.94 8.51 66.26 6.96 69.64 6.96C74.57 6.96 77.51 9.85 77.75 15.07C78.93 10.38 82.93 6.96 88.59 6.96C94.26 6.96 98.09 10.26 99.35 15.15V7.58H105.55V10.35C106.65 8.31 108.32 6.97 111.83 6.97H113.09V12.64H110.48C107.67 12.64 105.55 13.7 105.55 17.69V28.78H99.35V23.52C97.88 26.78 94.42 29.39 88.87 29.39C82.59 29.39 78.92 26.13 77.74 21.56V28.77H71.54V16.59C71.54 13.94 70.85 12.07 68.08 12.07C65.72 12.07 63.84 13.7 63.84 17.16V28.78H57.64V16.59C57.64 13.94 56.95 12.07 54.18 12.07C51.82 12.07 49.94 13.7 49.94 17.16V28.78H43.74V21.4C42.48 26.21 38.32 29.39 32.53 29.39C26.74 29.39 22.58 26.21 21.32 21.4V28.78H15.12V16.55C15.12 13.9 14.06 12.07 11.29 12.07C8.23 12.07 6.2 14.23 6.2 17.69V28.78H0L0 0ZM27.02 18.18C27.02 21.4 28.69 24.62 32.52 24.62C36.35 24.62 38.02 21.4 38.02 18.18C38.02 14.88 36.35 11.74 32.52 11.74C28.7 11.74 27.02 14.88 27.02 18.18ZM93.63 16.06C93.39 13.13 91.55 11.37 88.74 11.37C85.89 11.37 83.93 13.24 83.6 16.06H93.63ZM83.6 19.97C83.84 23.07 85.84 24.9 88.98 24.9C91.63 24.9 93.02 23.76 93.63 22.45H99.34V19.96H83.6V19.97Z" fill="black"/>
</g>
<defs>
<clipPath id="clip0_7_2">
<rect width="124.99" height="29.39" fill="white"/>
</clipPath>
</defs>
</svg>
